<?xml version="1.0" encoding="UTF-8"?>
<svg width="940px" height="800px" viewBox="0 0 940 800" version="1.1" xmlns="http://www.w3.org/2000/svg" xmlns:xlink="http://www.w3.org/1999/xlink">
    <!-- Generator: Sketch 43.2 (39069) - http://www.bohemiancoding.com/sketch -->
    <title>bemtree</title>
    <desc>Created with Sketch.</desc>
    <defs></defs>
    <g id="Page-1" stroke="none" stroke-width="1" fill="none" fill-rule="evenodd">
        <g id="bemtree">
            <rect id="Rectangle-231" fill="#FFFFFF" opacity="0.4" x="0" y="0" width="940" height="800"></rect>
            <g id="Group-2" transform="translate(70.000000, 205.000000)">
                <g id="Group" transform="translate(73.500000, 52.000000) scale(-1, 1) rotate(90.000000) translate(-73.500000, -52.000000) translate(21.500000, -21.500000)">
                    <path d="M102.913,137.928 L96.543,131.558 C95.9558698,130.977441 95.0104832,130.97878 94.425,131.561 C94.1427073,131.840854 93.9835783,132.221668 93.9828276,132.619169 C93.9820769,133.01667 94.1397663,133.398082 94.421,133.679 L99.728,138.985 L94.421,144.292 C93.8407169,144.879404 93.8425024,145.824792 94.425,146.41 C95.015,147 95.959,146.997 96.543,146.413 L102.913,140.043 C103.192013,139.763239 103.348483,139.384112 103.348,138.989 C103.351688,138.586966 103.193725,138.20735 102.913,137.928 Z" id="Shape" fill="#7E7E7E" fill-rule="nonzero"></path>
                    <polyline id="Shape" stroke="#7E7E7E" stroke-width="2" stroke-linecap="round" stroke-dasharray="4,4" points="11 4 41 4 41 139 95 139"></polyline>
                    <circle id="Oval" fill="#7E7E7E" fill-rule="nonzero" cx="4" cy="4" r="4"></circle>
                </g>
                <g id="Group" transform="translate(218.000000, 52.000000) scale(-1, 1) rotate(90.000000) translate(-218.000000, -52.000000) translate(166.000000, -15.000000)">
                    <path d="M103.352,7.983 C103.351688,7.58696624 103.193725,7.20734995 102.913,6.928 L96.543,0.558 C95.9558698,-0.0225592486 95.0104832,-0.021220174 94.425,0.561 C94.1427073,0.84085417 93.9835783,1.22166779 93.9828276,1.6191687 C93.9820769,2.01666962 94.1397663,2.39808157 94.421,2.679 L99.728,7.985 L94.421,13.292 C93.8407169,13.8794044 93.8425024,14.8247916 94.425,15.41 C95.015,16 95.959,15.997 96.543,15.413 L102.913,9.043 C103.192013,8.76323922 103.348483,8.3841125 103.348,7.989 L103.352,7.983 Z" id="Shape" fill="#7E7E7E" fill-rule="nonzero"></path>
                    <polyline id="Shape" stroke="#7E7E7E" stroke-width="2" stroke-linecap="round" stroke-dasharray="4,4" points="11 130 41 130 41 8 95 8"></polyline>
                    <circle id="Oval" fill="#7E7E7E" fill-rule="nonzero" cx="4" cy="130" r="4"></circle>
                </g>
            </g>
            <g id="setings_cashe_file_icon" transform="translate(276.000000, 10.000000)">
                <polygon id="Rectangle-231" fill="#FFCC00" opacity="0.4" points="91 0 11 0 11 160 139 160 139 48"></polygon>
                <polygon id="Rectangle-232" fill="#E4A800" opacity="0.4" points="91 0 91 48 139 48"></polygon>
                <text id="BEMTREE-Template" font-family="Roboto-Bold, Roboto" font-size="18" font-weight="bold" fill="#000000">
                    <tspan x="0" y="184">BEMTREE Template</tspan>
                </text>
                <path d="M40.0000126,90.9995515 C40.0000126,89.3420869 41.3499837,87.9996156 42.9864488,87.9996156 L79.0141793,87.9996156 C80.6641441,87.9996156 82.0006156,89.3315871 82.0006156,90.9995515 C82.0006156,92.6570161 80.6506444,93.9994874 79.0141793,93.9994874 L42.9849488,93.9994874 C42.1906888,93.9994975 41.4291765,93.6829558 40.8689592,93.1199233 C40.3087419,92.5568909 39.9960213,91.7938015 40.0000126,90.9995515 Z M87.9989874,90.9995515 C87.9989874,89.3420869 89.3519585,87.9996156 91.0124231,87.9996156 L102.985167,87.9996156 C104.641986,87.9996156 105.985103,89.3427326 105.985103,90.9995515 C105.985103,92.6563704 104.641986,93.9994874 102.985167,93.9994874 L91.013923,93.9994874 C90.2156949,94.0034786 89.4487903,93.6891777 88.8829449,93.1261474 C88.3170994,92.5631171 87.9989775,91.7977897 87.9989874,90.9995515 L87.9989874,90.9995515 Z M40.0000126,72.9999359 C40.0000126,71.3424713 41.3424839,70 42.9909487,70 L61.0085639,70 C62.6600286,70 63.9995,71.3319716 63.9995,72.9999359 C63.9995,74.6574005 62.6570287,75.9998719 61.0085639,75.9998719 L42.9909487,75.9998719 C42.1958955,76.0006765 41.4333058,75.6845825 40.8719632,75.1215508 C40.3106206,74.5585191 39.9968192,73.7949831 40.0000126,72.9999359 Z M69.9993719,72.9999359 C69.9993719,71.3424713 71.349343,70 72.9858081,70 L109.013539,70 C110.663503,70 111.999975,71.3319716 111.999975,72.9999359 C111.999975,74.6574005 110.650004,75.9998719 109.013539,75.9998719 L72.9843081,75.9998719 C72.1900481,75.9998819 71.4285358,75.6833402 70.8683185,75.1203078 C70.3081012,74.5572753 69.9953806,73.7941859 69.9993719,72.9999359 L69.9993719,72.9999359 Z M40.0000126,108.999167 C40.0000126,107.341702 41.3349841,105.999231 42.9999485,105.999231 L90.9989234,105.999231 C92.656388,105.999231 93.9988593,107.331203 93.9988593,108.999167 C93.9988593,110.656632 92.6638878,111.999103 90.9989234,111.999103 L42.9999485,111.999103 C41.3424839,111.999103 40.0000126,110.667131 40.0000126,108.999167 Z" id="Shape" fill="#827262" fill-rule="nonzero"></path>
            </g>
            <g id="setings_cashe_file_icon" transform="translate(152.000000, 317.000000)">
                <polygon id="Rectangle-231" fill="#FFCC00" opacity="0.4" points="83 0 3 0 3 160 131 160 131 48"></polygon>
                <polygon id="Rectangle-232" fill="#E4A800" opacity="0.4" points="83 0 83 48 131 48"></polygon>
                <text id="Template-Engine" font-family="Roboto-Bold, Roboto" font-size="18" font-weight="bold" fill="#000000">
                    <tspan x="0" y="184">Template Engine</tspan>
                </text>
                <g id="map_menu_settings" transform="translate(20.000000, 40.000000)" fill="#666666">
                    <path d="M38.5209608,70 L31.4790392,70 C28.8857673,70 26.5035756,68.208 25.8117999,65.73875 L23.8766018,58.82975 C22.4043613,58.15425 20.9977507,57.34575 19.6709605,56.41125 L12.6130747,58.219 C10.1546104,58.85075 7.29881849,57.6625 6.03765821,55.5065 L2.51492359,49.49 C1.21828764,47.27625 1.60142494,44.34325 3.42664846,42.518 L8.61496606,37.317 C8.54756228,36.54875 8.5120866,35.7735 8.5120866,35 C8.5120866,34.22475 8.54756228,33.45125 8.61496606,32.68125 L3.4231009,27.48025 C1.60142494,25.65325 1.21828764,22.72025 2.51847116,20.50475 L6.03765821,14.49 C7.29881849,12.3375 10.1528366,11.1545 12.611301,11.781 L19.6709605,13.58875 C20.9977507,12.65425 22.4043613,11.84575 23.8766018,11.17025 L25.8117999,4.26125 C26.5035756,1.792 28.887541,0 31.4790392,0 L38.5209608,0 C41.1142327,0 43.4964244,1.792 44.1882001,4.26125 L46.1233982,11.17025 C47.5956387,11.84575 49.0022493,12.65425 50.3290395,13.58875 L57.3869253,11.781 C59.8471634,11.15275 62.7029553,12.3375 63.9623418,14.49175 L67.4850764,20.50825 C68.7817124,22.72375 68.3985751,25.65675 66.5733515,27.482 L61.3850339,32.68125 C61.4524377,33.45125 61.4879134,34.22475 61.4879134,35 C61.4879134,35.7735 61.4524377,36.54875 61.3850339,37.317 L66.5768991,42.51975 C68.3985751,44.34675 68.7817124,47.27975 67.4833026,49.4935 L63.9623418,55.50825 C62.7011815,57.66075 59.8489372,58.85075 57.388699,58.219 L50.3290395,56.41125 C49.0022493,57.34575 47.5956387,58.15425 46.1233982,58.82975 L44.1882001,65.73875 C43.4964244,68.208 41.112459,70 38.5209608,70 L38.5209608,70 L38.5209608,70 Z M32.4067281,63 L37.5932719,63 L40.2166981,53.63225 L41.89115,52.99875 C43.8458598,52.262 45.6604406,51.21725 47.2870003,49.89425 L48.6829682,48.75675 L58.2809123,51.2155 L60.8741842,46.7845 L53.8783809,39.7705 L54.1550912,38.02925 C54.312958,37.03875 54.3927782,36.02025 54.3927782,35 C54.3927782,33.97975 54.312958,32.96125 54.1550912,31.97075 L53.8783809,30.2295 L60.8741842,23.2155 L58.2809123,18.7845 L48.6829682,21.2415 L47.2870003,20.104 C45.6604406,18.78275 43.8458598,17.738 41.89115,16.9995 L40.2166981,16.36775 L37.5932719,7 L32.4067281,7 L29.7833019,16.36775 L28.10885,16.9995 C26.1541402,17.738 24.3395594,18.78275 22.7129997,20.104 L21.3170318,21.2415 L11.7190877,18.7845 L9.1258158,23.2155 L16.1216191,30.2295 L15.8449088,31.97075 C15.687042,32.96125 15.6072218,33.97975 15.6072218,35 C15.6072218,36.02025 15.687042,37.03875 15.8449088,38.02925 L16.1216191,39.7705 L9.1258158,46.7845 L11.7190877,51.2155 L21.3170318,48.75675 L22.7129997,49.89425 C24.3395594,51.21725 26.1541402,52.262 28.10885,52.99875 L29.7833019,53.63225 L32.4067281,63 L32.4067281,63 Z M35,45.5 C29.2010101,45.5 24.5,40.7989899 24.5,35 C24.5,29.2010101 29.2010101,24.5 35,24.5 C40.7989899,24.5 45.5,29.2010101 45.5,35 C45.5,40.7989899 40.7989899,45.5 35,45.5 L35,45.5 L35,45.5 Z M38.5,35 C38.5,33.0670034 36.9329966,31.5 35,31.5 C33.0670034,31.5 31.5,33.0670034 31.5,35 C31.5,36.9329966 33.0670034,38.5 35,38.5 C36.9329966,38.5 38.5,36.9329966 38.5,35 L38.5,35 Z" id="Shape"></path>
                </g>
                <g id="map_menu_settings" transform="translate(63.000000, 85.000000)" fill="#827262">
                    <path d="M42.0239552,80 L33.9760448,80 C31.0123054,80 28.2898007,77.952 27.4991999,75.13 L25.2875449,67.234 C23.6049843,66.462 21.9974294,65.538 20.4810977,64.47 L12.4149426,66.536 C9.60526902,67.258 6.34150684,65.9 4.90018081,63.436 L0.874198393,56.56 C-0.607671268,54.03 -0.169800068,50.678 1.91616967,48.592 L7.8456755,42.648 C7.7686426,41.77 7.72809897,40.884 7.72809897,40 C7.72809897,39.114 7.7686426,38.23 7.8456755,37.35 L1.91211531,31.406 C-0.169800068,29.318 -0.607671268,25.966 0.878252756,23.434 L4.90018081,16.56 C6.34150684,14.1 9.60324184,12.748 12.4129154,13.464 L20.4810977,15.53 C21.9974294,14.462 23.6049843,13.538 25.2875449,12.766 L27.4991999,4.87 C28.2898007,2.048 31.0143326,0 33.9760448,0 L42.0239552,0 C44.9876946,0 47.7101993,2.048 48.5008001,4.87 L50.7124551,12.766 C52.3950157,13.538 54.0025706,14.462 55.5189023,15.53 L63.5850574,13.464 C66.3967582,12.746 69.6605203,14.1 71.0998192,16.562 L75.1258016,23.438 C76.6076713,25.97 76.1698001,29.322 74.0838303,31.408 L68.1543245,37.35 C68.2313574,38.23 68.271901,39.114 68.271901,40 C68.271901,40.884 68.2313574,41.77 68.1543245,42.648 L74.0878847,48.594 C76.1698001,50.682 76.6076713,54.034 75.1237744,56.564 L71.0998192,63.438 C69.6584932,65.898 66.3987853,67.258 63.5870846,66.536 L55.5189023,64.47 C54.0025706,65.538 52.3950157,66.462 50.7124551,67.234 L48.5008001,75.13 C47.7101993,77.952 44.9856674,80 42.0239552,80 L42.0239552,80 L42.0239552,80 Z M35.0362607,72 L40.9637393,72 L43.9619407,61.294 L45.8756,60.57 C48.109554,59.728 50.1833607,58.534 52.0422861,57.022 L53.6376779,55.722 L64.6067569,58.532 L67.5704962,53.468 L59.5752925,45.452 L59.8915328,43.462 C60.0719519,42.33 60.1631751,41.166 60.1631751,40 C60.1631751,38.834 60.0719519,37.67 59.8915328,36.538 L59.5752925,34.548 L67.5704962,26.532 L64.6067569,21.468 L53.6376779,24.276 L52.0422861,22.976 C50.1833607,21.466 48.109554,20.272 45.8756,19.428 L43.9619407,18.706 L40.9637393,8 L35.0362607,8 L32.0380593,18.706 L30.1244,19.428 C27.890446,20.272 25.8166393,21.466 23.9577139,22.976 L22.3623221,24.276 L11.3932431,21.468 L8.42950377,26.532 L16.4247075,34.548 L16.1084672,36.538 C15.9280481,37.67 15.8368249,38.834 15.8368249,40 C15.8368249,41.166 15.9280481,42.33 16.1084672,43.462 L16.4247075,45.452 L8.42950377,53.468 L11.3932431,58.532 L22.3623221,55.722 L23.9577139,57.022 C25.8166393,58.534 27.890446,59.728 30.1244,60.57 L32.0380593,61.294 L35.0362607,72 L35.0362607,72 Z M38,52 C31.372583,52 26,46.627417 26,40 C26,33.372583 31.372583,28 38,28 C44.627417,28 50,33.372583 50,40 C50,46.627417 44.627417,52 38,52 L38,52 L38,52 Z M42,40 C42,37.790861 40.209139,36 38,36 C35.790861,36 34,37.790861 34,40 C34,42.209139 35.790861,44 38,44 C40.209139,44 42,42.209139 42,40 L42,40 Z" id="Shape"></path>
                </g>
                <g id="Group" transform="translate(67.000000, 239.000000) scale(-1, 1) rotate(90.000000) translate(-67.000000, -239.000000) translate(26.000000, 231.000000)">
                    <path d="M81.352,7.983 C81.3516884,7.58696624 81.1937249,7.20734995 80.913,6.928 L74.543,0.558 C73.9558698,-0.0225592486 73.0104832,-0.021220174 72.425,0.561 C72.1427073,0.84085417 71.9835783,1.22166779 71.9828276,1.6191687 C71.9820769,2.01666962 72.1397663,2.39808157 72.421,2.679 L77.728,7.985 L72.421,13.292 C71.8407169,13.8794044 71.8425024,14.8247916 72.425,15.41 C73.015,16 73.959,15.997 74.543,15.413 L80.913,9.043 C81.1920126,8.76323922 81.3484833,8.3841125 81.348,7.989 L81.352,7.983 Z" id="Shape" fill="#7E7E7E" fill-rule="nonzero"></path>
                    <path d="M11,8 L71,8" id="Shape" stroke="#79818F" stroke-width="2" stroke-linecap="round" stroke-dasharray="4,4"></path>
                    <circle id="Oval" fill="#7E7E7E" fill-rule="nonzero" cx="4" cy="8" r="4"></circle>
                </g>
            </g>
            <g id="setings_cashe_file_icon" transform="translate(150.000000, 604.000000)">
                <polygon id="Rectangle-231" fill="#FFCC00" opacity="0.4" points="85 0 5 0 5 160 133 160 133 48"></polygon>
                <polygon id="Rectangle-232" fill="#E4A800" opacity="0.4" points="85 0 85 48 133 48"></polygon>
                <text id="Result-BEMJSON" font-family="Roboto-Bold, Roboto" font-size="18" font-weight="bold" fill="#000000">
                    <tspan x="0" y="184">Result BEMJSON</tspan>
                </text>
                <path d="M33.0000126,90.9995515 C33.0000126,89.3420869 34.3499837,87.9996156 35.9864488,87.9996156 L72.0141793,87.9996156 C73.6641441,87.9996156 75.0006156,89.3315871 75.0006156,90.9995515 C75.0006156,92.6570161 73.6506444,93.9994874 72.0141793,93.9994874 L35.9849488,93.9994874 C35.1906888,93.9994975 34.4291765,93.6829558 33.8689592,93.1199233 C33.3087419,92.5568909 32.9960213,91.7938015 33.0000126,90.9995515 Z M80.9989874,90.9995515 C80.9989874,89.3420869 82.3519585,87.9996156 84.0124231,87.9996156 L95.9851674,87.9996156 C97.6419862,87.9996156 98.9851033,89.3427326 98.9851033,90.9995515 C98.9851033,92.6563704 97.6419862,93.9994874 95.9851674,93.9994874 L84.013923,93.9994874 C83.2156949,94.0034786 82.4487903,93.6891777 81.8829449,93.1261474 C81.3170994,92.5631171 80.9989775,91.7977897 80.9989874,90.9995515 L80.9989874,90.9995515 Z M33.0000126,72.9999359 C33.0000126,71.3424713 34.3424839,70 35.9909487,70 L54.0085639,70 C55.6600286,70 56.9995,71.3319716 56.9995,72.9999359 C56.9995,74.6574005 55.6570287,75.9998719 54.0085639,75.9998719 L35.9909487,75.9998719 C35.1958955,76.0006765 34.4333058,75.6845825 33.8719632,75.1215508 C33.3106206,74.5585191 32.9968192,73.7949831 33.0000126,72.9999359 Z M62.9993719,72.9999359 C62.9993719,71.3424713 64.349343,70 65.9858081,70 L102.013539,70 C103.663503,70 104.999975,71.3319716 104.999975,72.9999359 C104.999975,74.6574005 103.650004,75.9998719 102.013539,75.9998719 L65.9843081,75.9998719 C65.1900481,75.9998819 64.4285358,75.6833402 63.8683185,75.1203078 C63.3081012,74.5572753 62.9953806,73.7941859 62.9993719,72.9999359 L62.9993719,72.9999359 Z M33.0000126,108.999167 C33.0000126,107.341702 34.3349841,105.999231 35.9999485,105.999231 L83.9989234,105.999231 C85.656388,105.999231 86.9988593,107.331203 86.9988593,108.999167 C86.9988593,110.656632 85.6638878,111.999103 83.9989234,111.999103 L35.9999485,111.999103 C34.3424839,111.999103 33.0000126,110.667131 33.0000126,108.999167 Z" id="Shape" fill="#827262" fill-rule="nonzero"></path>
            </g>
            <g id="setings_cashe_file_icon" transform="translate(10.000000, 10.000000)">
                <polygon id="Rectangle-231" fill="#FFCC00" opacity="0.4" points="80 0 0 0 0 160 128 160 128 48"></polygon>
                <polygon id="Rectangle-232" fill="#E4A800" opacity="0.4" points="80 0 80 48 128 48"></polygon>
                <text id="Data" font-family="Roboto-Bold, Roboto" font-size="18" font-weight="bold" fill="#000000">
                    <tspan x="43" y="184">Data</tspan>
                </text>
                <g id="Group" transform="translate(11.000000, 30.000000)">
                    <path d="M49,4 L80,38" id="Line" stroke="#979797" stroke-width="0.5" stroke-linecap="square"></path>
                    <path d="M76,31 L76,73" id="Line" stroke="#979797" stroke-width="0.5" stroke-linecap="square"></path>
                    <path d="M30,31 L30,73" id="Line" stroke="#979797" stroke-width="0.5" stroke-linecap="square"></path>
                    <path d="M30,34 L57,3" id="Line" stroke="#979797" stroke-width="0.5" stroke-linecap="square"></path>
                    <path d="M6,101 L30,72" id="Line" stroke="#979797" stroke-width="0.5" stroke-linecap="square"></path>
                    <path d="M52,101 L76,72" id="Line" stroke="#979797" stroke-width="0.5" stroke-linecap="square"></path>
                    <path d="M53,99 L31,73" id="Line" stroke="#979797" stroke-width="0.5" stroke-linecap="square"></path>
                    <circle id="Oval" fill="#EE0000" fill-rule="nonzero" cx="76" cy="73" r="8"></circle>
                    <circle id="Oval" fill="#EE0000" fill-rule="nonzero" cx="30" cy="73" r="8"></circle>
                    <circle id="Oval" fill="#EE0000" fill-rule="nonzero" cx="76" cy="33" r="8"></circle>
                    <circle id="Oval" fill="#EE0000" fill-rule="nonzero" cx="30" cy="33" r="8"></circle>
                    <circle id="Oval" fill="#EE0000" fill-rule="nonzero" cx="53" cy="8" r="8"></circle>
                    <circle id="Oval" fill="#EE0000" fill-rule="nonzero" cx="53" cy="98" r="8"></circle>
                    <circle id="Oval" fill="#EE0000" fill-rule="nonzero" cx="8" cy="98" r="8"></circle>
                </g>
                <g id="Group" transform="translate(86.000000, 97.000000)" fill-rule="nonzero">
                    <path d="M48.446,8 C47.715,3.538 37.271,0 24.491,0 C11.711,0 1.267,3.538 0.535,8 L0.491,8 L0.491,45 L0.536,45 C1.267,49.461 11.711,53 24.491,53 C37.271,53 47.715,49.461 48.446,45 L48.491,45 L48.491,8 L48.446,8 Z" id="Shape" fill="#545E73"></path>
                    <g transform="translate(0.000000, 32.000000)" id="Shape" fill="#5C8AE6">
                        <path d="M24.491,9 C11.236,9 0.491,5.194 0.491,0.5 L0.491,13 L0.536,13 C1.267,17.461 11.711,21 24.491,21 C37.271,21 47.715,17.461 48.446,13 L48.491,13 L48.491,0.5 C48.491,5.194 37.746,9 24.491,9 Z M0.491,0 L0.491,0.5 C0.491,0.332 0.509,0.166 0.536,0 L0.491,0 Z M48.446,0 C48.473,0.166 48.491,0.332 48.491,0.5 L48.491,0 L48.446,0 Z"></path>
                    </g>
                    <g transform="translate(0.000000, 20.000000)" id="Shape" fill="#A1B2E6">
                        <path d="M24.491,9 C11.236,9 0.491,5.194 0.491,0.5 L0.491,13 L0.536,13 C1.267,17.461 11.711,21 24.491,21 C37.271,21 47.715,17.461 48.446,13 L48.491,13 L48.491,0.5 C48.491,5.194 37.746,9 24.491,9 Z M0.491,0 L0.491,0.5 C0.491,0.332 0.509,0.166 0.536,0 L0.491,0 Z M48.446,0 C48.473,0.166 48.491,0.332 48.491,0.5 L48.491,0 L48.446,0 Z"></path>
                    </g>
                    <ellipse id="Oval" fill="#91BAE1" cx="24.491" cy="8.5" rx="24" ry="8.5"></ellipse>
                    <g transform="translate(0.000000, 8.000000)" id="Shape" fill="#8697CB">
                        <path d="M24.491,9 C11.236,9 0.491,5.194 0.491,0.5 L0.491,13 L0.536,13 C1.267,17.461 11.711,21 24.491,21 C37.271,21 47.715,17.461 48.446,13 L48.491,13 L48.491,0.5 C48.491,5.194 37.746,9 24.491,9 Z M0.491,0 L0.491,0.5 C0.491,0.332 0.509,0.166 0.536,0 L0.491,0 Z M48.446,0 C48.473,0.166 48.491,0.332 48.491,0.5 L48.491,0 L48.446,0 Z"></path>
                    </g>
                </g>
            </g>
        </g>
    </g>
</svg>