<?xml version="1.0" encoding="UTF-8"?>
<svg width="940px" height="520px" viewBox="0 0 940 520" version="1.1" xmlns="http://www.w3.org/2000/svg" xmlns:xlink="http://www.w3.org/1999/xlink">
    <!-- Generator: Sketch 43.2 (39069) - http://www.bohemiancoding.com/sketch -->
    <title>bemtree</title>
    <desc>Created with Sketch.</desc>
    <defs></defs>
    <g id="Page-1" stroke="none" stroke-width="1" fill="none" fill-rule="evenodd">
        <g id="bemtree">
            <rect id="Rectangle-231" fill="#FFFFFF" opacity="0.4" x="0" y="0" width="940" height="520"></rect>
            <g id="Group-3" transform="translate(10.000000, 10.000000)">
                <g id="setings_cashe_file_icon" transform="translate(53.469733, 374.484597)">
                    <polygon id="Rectangle-231" fill="#FFCC00" opacity="0.4" points="46.7824572 0.721254355 11.1372341 0.721254355 11.1372341 72.0117005 68.1695911 72.0117005 68.1695911 22.1083882"></polygon>
                    <polygon id="Rectangle-232" fill="#E4A800" opacity="0.4" points="46.7824572 0.721254355 46.7824572 22.1083882 68.1695911 22.1083882"></polygon>
                    <text id="Result-BEMJSON" font-family="ArialMT, Arial" font-size="16" font-weight="normal" fill="#000000">
                        <tspan x="17.3924879" y="90.918114">Result </tspan>
                        <tspan x="1.39639419" y="107.918114">BEMJSON</tspan>
                    </text>
                    <path d="M23.6130678,41.2674958 C23.6130678,40.5289871 24.2145681,39.9308285 24.9437201,39.9308285 L40.9964263,39.9308285 C41.7315933,39.9308285 42.3270786,40.5243088 42.3270786,41.2674958 C42.3270786,42.0060045 41.7255783,42.6041631 40.9964263,42.6041631 L24.9430518,42.6041631 C24.5891571,42.6041676 24.2498537,42.4631276 24.0002403,42.2122599 C23.7506269,41.9613921 23.6112894,41.621386 23.6130678,41.2674958 Z M44.9997449,41.2674958 C44.9997449,40.5289871 45.6025818,39.9308285 46.3424272,39.9308285 L51.6770665,39.9308285 C52.4152875,39.9308285 53.0137338,40.5292748 53.0137338,41.2674958 C53.0137338,42.0057168 52.4152875,42.6041631 51.6770665,42.6041631 L46.3430955,42.6041631 C45.9874328,42.6059414 45.6457267,42.4658999 45.3936056,42.2150331 C45.1414845,41.9641663 44.9997404,41.623163 44.9997449,41.2674958 L44.9997449,41.2674958 Z M23.6130678,33.2474919 C23.6130678,32.5089832 24.2112264,31.9108246 24.9457251,31.9108246 L32.973749,31.9108246 C33.7095844,31.9108246 34.3064063,32.5043049 34.3064063,33.2474919 C34.3064063,33.9860006 33.7082477,34.5841592 32.973749,34.5841592 L24.9457251,34.5841592 C24.591477,34.5845177 24.2516935,34.4436772 24.0015787,34.1928098 C23.7514639,33.9419425 23.6116449,33.6017373 23.6130678,33.2474919 Z M36.979741,33.2474919 C36.979741,32.5089832 37.5812413,31.9108246 38.3103933,31.9108246 L54.3630995,31.9108246 C55.0982665,31.9108246 55.6937518,32.5043049 55.6937518,33.2474919 C55.6937518,33.9860006 55.0922515,34.5841592 54.3630995,34.5841592 L38.309725,34.5841592 C37.9558303,34.5841637 37.6165268,34.4431237 37.3669134,34.192256 C37.1173001,33.9413882 36.9779626,33.6013821 36.979741,33.2474919 L36.979741,33.2474919 Z M23.6130678,49.2874997 C23.6130678,48.548991 24.2078848,47.9508324 24.9497351,47.9508324 L46.3364122,47.9508324 C47.0749209,47.9508324 47.6730795,48.5443127 47.6730795,49.2874997 C47.6730795,50.0260084 47.0782626,50.624167 46.3364122,50.624167 L24.9497351,50.624167 C24.2112264,50.624167 23.6130678,50.0306867 23.6130678,49.2874997 Z" id="Shape" fill="#827262" fill-rule="nonzero"></path>
                </g>
                <g id="Group" transform="translate(93.000000, 340.000000) scale(-1, 1) rotate(90.000000) translate(-93.000000, -340.000000) translate(65.000000, 332.000000)">
                    <path d="M55.352,7.983 C55.3516884,7.58696624 55.1937249,7.20734995 54.913,6.928 L48.543,0.558 C47.9558698,-0.0225592486 47.0104832,-0.021220174 46.425,0.561 C46.1427073,0.84085417 45.9835783,1.22166779 45.9828276,1.6191687 C45.9820769,2.01666962 46.1397663,2.39808157 46.421,2.679 L51.728,7.985 L46.421,13.292 C45.8407169,13.8794044 45.8425024,14.8247916 46.425,15.41 C47.015,16 47.959,15.997 48.543,15.413 L54.913,9.043 C55.1920126,8.76323922 55.3484833,8.3841125 55.348,7.989 L55.352,7.983 Z" id="Shape" fill="#7E7E7E" fill-rule="nonzero"></path>
                    <path d="M11,8 L50,8" id="Shape" stroke="#79818F" stroke-width="2" stroke-linecap="round" stroke-dasharray="4,4"></path>
                    <circle id="Oval" fill="#7E7E7E" fill-rule="nonzero" cx="4" cy="8" r="4"></circle>
                </g>
                <g id="Group" transform="translate(57.500000, 155.000000) scale(-1, 1) rotate(90.000000) translate(-57.500000, -155.000000) translate(29.500000, 121.500000)">
                    <path d="M55.352,58.983 C55.3516884,58.5869662 55.1937249,58.20735 54.913,57.928 L48.543,51.558 C47.9558698,50.9774408 47.0104832,50.9787798 46.425,51.561 C46.1427073,51.8408542 45.9835783,52.2216678 45.9828276,52.6191687 C45.9820769,53.0166696 46.1397663,53.3980816 46.421,53.679 L51.728,58.985 L46.421,64.292 C45.8407169,64.8794044 45.8425024,65.8247916 46.425,66.41 C47.015,67 47.959,66.997 48.543,66.413 L54.913,60.043 C55.1920126,59.7632392 55.3484833,59.3841125 55.348,58.989 L55.352,58.983 Z" id="Shape" fill="#7E7E7E" fill-rule="nonzero"></path>
                    <polyline id="Shape" stroke="#79818F" stroke-width="2" stroke-linecap="round" stroke-dasharray="4,4" points="11 4 25.9499969 4 25.953125 59 50 59"></polyline>
                    <circle id="Oval" fill="#7E7E7E" fill-rule="nonzero" cx="4" cy="4" r="4"></circle>
                </g>
                <g id="Group" transform="translate(125.500000, 155.000000) scale(-1, 1) rotate(90.000000) translate(-125.500000, -155.000000) translate(97.500000, 124.500000)">
                    <path d="M55.352,7.983 C55.3516884,7.58696624 55.1937249,7.20734995 54.913,6.928 L48.543,0.558 C47.9558698,-0.0225592486 47.0104832,-0.021220174 46.425,0.561 C46.1427073,0.84085417 45.9835783,1.22166779 45.9828276,1.6191687 C45.9820769,2.01666962 46.1397663,2.39808157 46.421,2.679 L51.728,7.985 L46.421,13.292 C45.8407169,13.8794044 45.8425024,14.8247916 46.425,15.41 C47.015,16 47.959,15.997 48.543,15.413 L54.913,9.043 C55.1920126,8.76323922 55.3484833,8.3841125 55.348,7.989 L55.352,7.983 Z" id="Shape" fill="#7E7E7E" fill-rule="nonzero"></path>
                    <polyline id="Shape" stroke="#79818F" stroke-width="2" stroke-linecap="round" stroke-dasharray="4,4" points="11 57 26.1499939 57 26.1542969 8 50 8"></polyline>
                    <circle id="Oval" fill="#7E7E7E" fill-rule="nonzero" cx="4" cy="57" r="4"></circle>
                </g>
                <g id="setings_cashe_file_icon" transform="translate(56.967135, 189.907011)">
                    <polygon id="Rectangle-231" fill="#FFCC00" opacity="0.4" points="43.2850548 0 7.63983175 0 7.63983175 71.2904462 64.6721887 71.2904462 64.6721887 21.3871339"></polygon>
                    <polygon id="Rectangle-232" fill="#E4A800" opacity="0.4" points="43.2850548 0 43.2850548 21.3871339 64.6721887 21.3871339"></polygon>
                    <text id="Template-Engine" font-family="ArialMT, Arial" font-size="16" font-weight="normal" fill="#000000">
                        <tspan x="3.85863052" y="90.1968597">Template </tspan>
                        <tspan x="11.4094118" y="107.19686">Engine</tspan>
                    </text>
                    <g id="map_menu_settings" transform="translate(10.214442, 13.822612)" fill="#666666">
                        <path d="M17.163603,31.1895702 L14.0259672,31.1895702 C12.8704952,31.1895702 11.8090733,30.3911172 11.5008421,29.2909051 L10.638585,26.2124945 C9.9826057,25.9115152 9.35586887,25.5512757 8.76469717,25.1348949 L5.61994829,25.9403655 C4.52454191,26.2218514 3.25210017,25.6924085 2.69017092,24.7317697 L1.12056266,22.0510261 C0.542826684,21.064656 0.713539366,19.757813 1.52679561,18.9445449 L3.83852984,16.6271599 C3.80849705,16.2848543 3.79269032,15.9394299 3.79269032,15.5947851 C3.79269032,15.2493606 3.80849705,14.9047159 3.83852984,14.5616306 L1.52521494,12.2442455 C0.713539366,11.4301977 0.542826684,10.1233548 1.12214333,9.13620485 L2.69017092,6.45624103 C3.25210017,5.49716175 4.52375158,4.97005801 5.61915795,5.24920467 L8.76469717,6.05467532 C9.35586887,5.63829455 9.9826057,5.27805502 10.638585,4.97707567 L11.5008421,1.89866509 C11.8090733,0.798452997 12.8712856,0 14.0259672,0 L17.163603,0 C18.319075,0 19.3804969,0.798452997 19.6887281,1.89866509 L20.5509852,4.97707567 C21.2069645,5.27805502 21.8337013,5.63829455 22.424873,6.05467532 L25.5696219,5.24920467 C26.6658186,4.96927827 27.9382604,5.49716175 28.4993993,6.45702077 L30.0690076,9.13776433 C30.6467435,10.1249142 30.4760308,11.4317572 29.6627746,12.2450253 L27.3510404,14.5616306 C27.3810732,14.9047159 27.3968799,15.2493606 27.3968799,15.5947851 C27.3968799,15.9394299 27.3810732,16.2848543 27.3510404,16.6271599 L29.6643553,18.9453247 C30.4760308,19.7593725 30.6467435,21.0662155 30.0682172,22.0525856 L28.4993993,24.7325494 C27.93747,25.6916287 26.666609,26.2218514 25.5704123,25.9403655 L22.424873,25.1348949 C21.8337013,25.5512757 21.2069645,25.9115152 20.5509852,26.2124945 L19.6887281,29.2909051 C19.3804969,30.3911172 18.3182846,31.1895702 17.163603,31.1895702 L17.163603,31.1895702 L17.163603,31.1895702 Z M14.4393132,28.0706132 L16.750257,28.0706132 L17.9191647,23.896669 L18.6652424,23.6144033 C19.5361932,23.2861331 20.3447074,22.8206288 21.069446,22.2311459 L21.6914408,21.7243154 L25.9679515,22.819849 L27.1234235,20.8455492 L24.0063363,17.7203543 L24.1296288,16.9445138 C24.1999688,16.5031813 24.2355339,16.0493731 24.2355339,15.5947851 C24.2355339,15.1401971 24.1999688,14.6863889 24.1296288,14.2450565 L24.0063363,13.4692159 L27.1234235,10.344021 L25.9679515,8.36972117 L21.6914408,9.46447508 L21.069446,8.95764456 C20.3447074,8.36894143 19.5361932,7.90343709 18.6652424,7.57438712 L17.9191647,7.29290125 L16.750257,3.11895702 L14.4393132,3.11895702 L13.2704055,7.29290125 L12.5243278,7.57438712 C11.653377,7.90343709 10.8448628,8.36894143 10.1201242,8.95764456 L9.49812943,9.46447508 L5.2216187,8.36972117 L4.06614675,10.344021 L7.18323386,13.4692159 L7.05994137,14.2450565 C6.98960142,14.6863889 6.95403628,15.1401971 6.95403628,15.5947851 C6.95403628,16.0493731 6.98960142,16.5031813 7.05994137,16.9445138 L7.18323386,17.7203543 L4.06614675,20.8455492 L5.2216187,22.819849 L9.49812943,21.7243154 L10.1201242,22.2311459 C10.8448628,22.8206288 11.653377,23.2861331 12.5243278,23.6144033 L13.2704055,23.896669 L14.4393132,28.0706132 L14.4393132,28.0706132 Z M15.5947851,20.2732206 C13.0109565,20.2732206 10.9163496,18.1786137 10.9163496,15.5947851 C10.9163496,13.0109565 13.0109565,10.9163496 15.5947851,10.9163496 C18.1786137,10.9163496 20.2732206,13.0109565 20.2732206,15.5947851 C20.2732206,18.1786137 18.1786137,20.2732206 15.5947851,20.2732206 L15.5947851,20.2732206 L15.5947851,20.2732206 Z M17.1542636,15.5947851 C17.1542636,14.7335089 16.4560613,14.0353066 15.5947851,14.0353066 C14.7335089,14.0353066 14.0353066,14.7335089 14.0353066,15.5947851 C14.0353066,16.4560613 14.7335089,17.1542636 15.5947851,17.1542636 C16.4560613,17.1542636 17.1542636,16.4560613 17.1542636,15.5947851 L17.1542636,15.5947851 Z" id="Shape"></path>
                    </g>
                    <g id="map_menu_settings" transform="translate(29.373749, 32.873050)" fill="#827262">
                        <path d="M22.1178712,42.1052632 L17.8821288,42.1052632 C16.322266,42.1052632 14.8893688,41.0273684 14.4732631,39.5421053 L13.3092342,35.3863158 C12.423676,34.98 11.5775944,34.4936842 10.7795251,33.9315789 L6.53418029,35.0189474 C5.05540475,35.3989474 3.33763518,34.6842105 2.57904253,33.3873684 L0.460104418,29.7684211 C-0.319826983,28.4368421 -0.0893684569,26.6726316 1.00851035,25.5747368 L4.12930289,22.4463158 C4.08875927,21.9842105 4.06742051,21.5178947 4.06742051,21.0526316 C4.06742051,20.5863158 4.08875927,20.1210526 4.12930289,19.6578947 L1.00637648,16.5294737 C-0.0893684569,15.4305263 -0.319826983,13.6663158 0.462238293,12.3336842 L2.57904253,8.71578947 C3.33763518,7.42105263 5.05433781,6.70947368 6.53311335,7.08631579 L10.7795251,8.17368421 C11.5775944,7.61157895 12.423676,7.12526316 13.3092342,6.71894737 L14.4732631,2.56315789 C14.8893688,1.07789474 16.323333,0 17.8821288,0 L22.1178712,0 C23.677734,0 25.1106312,1.07789474 25.5267369,2.56315789 L26.6907658,6.71894737 C27.576324,7.12526316 28.4224056,7.61157895 29.2204749,8.17368421 L33.4658197,7.08631579 C34.9456622,6.70842105 36.6634318,7.42105263 37.4209575,8.71684211 L39.5398956,12.3357895 C40.319827,13.6684211 40.0893685,15.4326316 38.9914896,16.5305263 L35.8706971,19.6578947 C35.9112407,20.1210526 35.9325795,20.5863158 35.9325795,21.0526316 C35.9325795,21.5178947 35.9112407,21.9842105 35.8706971,22.4463158 L38.9936235,25.5757895 C40.0893685,26.6747368 40.319827,28.4389474 39.5388286,29.7705263 L37.4209575,33.3884211 C36.6623648,34.6831579 34.9467291,35.3989474 33.4668866,35.0189474 L29.2204749,33.9315789 C28.4224056,34.4936842 27.576324,34.98 26.6907658,35.3863158 L25.5267369,39.5421053 C25.1106312,41.0273684 23.676667,42.1052632 22.1178712,42.1052632 L22.1178712,42.1052632 L22.1178712,42.1052632 Z M18.4401372,37.8947368 L21.5598628,37.8947368 L23.1378635,32.26 L24.1450527,31.8789474 C25.3208179,31.4357895 26.4122951,30.8073684 27.3906769,30.0115789 L28.2303568,29.3273684 L34.0035563,30.8063158 L35.5634191,28.1410526 L31.3554171,23.9221053 L31.5218594,22.8747368 C31.6168168,22.2789474 31.664829,21.6663158 31.664829,21.0526316 C31.664829,20.4389474 31.6168168,19.8263158 31.5218594,19.2305263 L31.3554171,18.1831579 L35.5634191,13.9642105 L34.0035563,11.2989474 L28.2303568,12.7768421 L27.3906769,12.0926316 C26.4122951,11.2978947 25.3208179,10.6694737 24.1450527,10.2252632 L23.1378635,9.84526316 L21.5598628,4.21052632 L18.4401372,4.21052632 L16.8621365,9.84526316 L15.8549473,10.2252632 C14.6791821,10.6694737 13.5877049,11.2978947 12.6093231,12.0926316 L11.7696432,12.7768421 L5.99644373,11.2989474 L4.43658093,13.9642105 L8.6445829,18.1831579 L8.47814064,19.2305263 C8.38318319,19.8263158 8.33517099,20.4389474 8.33517099,21.0526316 C8.33517099,21.6663158 8.38318319,22.2789474 8.47814064,22.8747368 L8.6445829,23.9221053 L4.43658093,28.1410526 L5.99644373,30.8063158 L11.7696432,29.3273684 L12.6093231,30.0115789 C13.5877049,30.8073684 14.6791821,31.4357895 15.8549473,31.8789474 L16.8621365,32.26 L18.4401372,37.8947368 L18.4401372,37.8947368 Z M20,27.3684211 C16.5118858,27.3684211 13.6842105,24.5407458 13.6842105,21.0526316 C13.6842105,17.5645174 16.5118858,14.7368421 20,14.7368421 C23.4881142,14.7368421 26.3157895,17.5645174 26.3157895,21.0526316 C26.3157895,24.5407458 23.4881142,27.3684211 20,27.3684211 L20,27.3684211 L20,27.3684211 Z M22.1052632,21.0526316 C22.1052632,19.8899268 21.1627047,18.9473684 20,18.9473684 C18.8372953,18.9473684 17.8947368,19.8899268 17.8947368,21.0526316 C17.8947368,22.2153363 18.8372953,23.1578947 20,23.1578947 C21.1627047,23.1578947 22.1052632,22.2153363 22.1052632,21.0526316 L22.1052632,21.0526316 Z" id="Shape"></path>
                    </g>
                </g>
                <g id="setings_cashe_file_icon" transform="translate(112.398416, 0.000000)">
                    <polygon id="Rectangle-231" fill="#FFCC00" opacity="0.4" points="46.6683925 0 11.0231694 0 11.0231694 71.2904462 68.0555263 71.2904462 68.0555263 21.3871339"></polygon>
                    <polygon id="Rectangle-232" fill="#E4A800" opacity="0.4" points="46.6683925 0 46.6683925 21.3871339 68.0555263 21.3871339"></polygon>
                    <text id="BEMTREE-Template" font-family="ArialMT, Arial" font-size="16" font-weight="normal" fill="#000000">
                        <tspan x="0.339709698" y="90.4499969">BEMTREE </tspan>
                        <tspan x="6.5506472" y="107.449997">Template</tspan>
                    </text>
                    <path d="M23.9445684,40.5462414 C23.9445684,39.8077327 24.5460687,39.2095741 25.2752207,39.2095741 L41.3279268,39.2095741 C42.0630939,39.2095741 42.6585792,39.8030544 42.6585792,40.5462414 C42.6585792,41.2847501 42.0570789,41.8829088 41.3279268,41.8829088 L25.2745524,41.8829088 C24.9206576,41.8829132 24.5813542,41.7418733 24.3317408,41.4910055 C24.0821274,41.2401378 23.94279,40.9001317 23.9445684,40.5462414 Z M45.3312455,40.5462414 C45.3312455,39.8077327 45.9340824,39.2095741 46.6739278,39.2095741 L52.008567,39.2095741 C52.746788,39.2095741 53.3452344,39.8080205 53.3452344,40.5462414 C53.3452344,41.2844624 52.746788,41.8829088 52.008567,41.8829088 L46.6745961,41.8829088 C46.3189333,41.8846871 45.9772273,41.7446455 45.7251062,41.4937787 C45.4729851,41.242912 45.331241,40.9019087 45.3312455,40.5462414 L45.3312455,40.5462414 Z M23.9445684,32.5262375 C23.9445684,31.7877288 24.542727,31.1895702 25.2772257,31.1895702 L33.3052496,31.1895702 C34.041085,31.1895702 34.6379069,31.7830505 34.6379069,32.5262375 C34.6379069,33.2647462 34.0397483,33.8629048 33.3052496,33.8629048 L25.2772257,33.8629048 C24.9229776,33.8632634 24.5831941,33.7224229 24.3330793,33.4715555 C24.0829645,33.2206881 23.9431455,32.8804829 23.9445684,32.5262375 Z M37.3112416,32.5262375 C37.3112416,31.7877288 37.9127418,31.1895702 38.6418939,31.1895702 L54.6946,31.1895702 C55.4297671,31.1895702 56.0252523,31.7830505 56.0252523,32.5262375 C56.0252523,33.2647462 55.423752,33.8629048 54.6946,33.8629048 L38.6412255,33.8629048 C38.2873308,33.8629093 37.9480274,33.7218693 37.698414,33.4710016 C37.4488006,33.2201339 37.3094632,32.8801278 37.3112416,32.5262375 L37.3112416,32.5262375 Z M23.9445684,48.5662453 C23.9445684,47.8277367 24.5393853,47.229578 25.2812357,47.229578 L46.6679128,47.229578 C47.4064215,47.229578 48.0045801,47.8230583 48.0045801,48.5662453 C48.0045801,49.304754 47.4097631,49.9029127 46.6679128,49.9029127 L25.2812357,49.9029127 C24.542727,49.9029127 23.9445684,49.3094324 23.9445684,48.5662453 Z" id="Shape" fill="#827262" fill-rule="nonzero"></path>
                </g>
                <g id="setings_cashe_file_icon">
                    <polygon id="Rectangle-231" fill="#FFCC00" opacity="0.4" points="35.6452231 0 0 0 0 71.2904462 57.032357 71.2904462 57.032357 21.3871339"></polygon>
                    <polygon id="Rectangle-232" fill="#E4A800" opacity="0.4" points="35.6452231 0 35.6452231 21.3871339 57.032357 21.3871339"></polygon>
                    <text id="Data" font-family="ArialMT, Arial" font-size="16" font-weight="normal" fill="#000000">
                        <tspan x="10.8096192" y="88.4546994">Data</tspan>
                    </text>
                    <g id="Group" transform="translate(4.901218, 13.366959)">
                        <path d="M21.8326991,1.78226115 L35.6452231,16.931481" id="Line" stroke="#979797" stroke-width="0.5" stroke-linecap="square"></path>
                        <path d="M33.8629619,13.8125239 L33.8629619,32.5262661" id="Line" stroke="#979797" stroke-width="0.5" stroke-linecap="square"></path>
                        <path d="M13.3669587,13.8125239 L13.3669587,32.5262661" id="Line" stroke="#979797" stroke-width="0.5" stroke-linecap="square"></path>
                        <path d="M13.3669587,15.1492198 L25.3972215,1.33669587" id="Line" stroke="#979797" stroke-width="0.5" stroke-linecap="square"></path>
                        <path d="M2.67339173,45.0020942 L13.3669587,32.0807008" id="Line" stroke="#979797" stroke-width="0.5" stroke-linecap="square"></path>
                        <path d="M23.169395,45.0020942 L33.8629619,32.0807008" id="Line" stroke="#979797" stroke-width="0.5" stroke-linecap="square"></path>
                        <path d="M23.6149603,44.1109636 L13.8125239,32.5262661" id="Line" stroke="#979797" stroke-width="0.5" stroke-linecap="square"></path>
                        <circle id="Oval" fill="#EE0000" fill-rule="nonzero" cx="33.8629619" cy="32.5262661" r="3.56452231"></circle>
                        <circle id="Oval" fill="#EE0000" fill-rule="nonzero" cx="13.3669587" cy="32.5262661" r="3.56452231"></circle>
                        <circle id="Oval" fill="#EE0000" fill-rule="nonzero" cx="33.8629619" cy="14.7036545" r="3.56452231"></circle>
                        <circle id="Oval" fill="#EE0000" fill-rule="nonzero" cx="13.3669587" cy="14.7036545" r="3.56452231"></circle>
                        <circle id="Oval" fill="#EE0000" fill-rule="nonzero" cx="23.6149603" cy="3.56452231" r="3.56452231"></circle>
                        <circle id="Oval" fill="#EE0000" fill-rule="nonzero" cx="23.6149603" cy="43.6653983" r="3.56452231"></circle>
                        <circle id="Oval" fill="#EE0000" fill-rule="nonzero" cx="3.56452231" cy="43.6653983" r="3.56452231"></circle>
                    </g>
                    <g id="Group" transform="translate(37.318615, 35.219833)" fill-rule="nonzero">
                        <path d="M29.6608163,4.89795918 C29.2132653,2.16612245 22.8189796,0 14.9944898,0 C7.17,0 0.775714286,2.16612245 0.32755102,4.89795918 L0.300612245,4.89795918 L0.300612245,27.5510204 L0.328163265,27.5510204 C0.775714286,30.2822449 7.17,32.4489796 14.9944898,32.4489796 C22.8189796,32.4489796 29.2132653,30.2822449 29.6608163,27.5510204 L29.6883673,27.5510204 L29.6883673,4.89795918 L29.6608163,4.89795918 Z" id="Shape" fill="#545E73"></path>
                        <g transform="translate(0.000000, 19.591837)" id="Shape" fill="#5C8AE6">
                            <path d="M14.9944898,5.51020408 C6.87918367,5.51020408 0.300612245,3.18 0.300612245,0.306122449 L0.300612245,7.95918367 L0.328163265,7.95918367 C0.775714286,10.6904082 7.17,12.8571429 14.9944898,12.8571429 C22.8189796,12.8571429 29.2132653,10.6904082 29.6608163,7.95918367 L29.6883673,7.95918367 L29.6883673,0.306122449 C29.6883673,3.18 23.1097959,5.51020408 14.9944898,5.51020408 Z M0.300612245,0 L0.300612245,0.306122449 C0.300612245,0.203265306 0.311632653,0.101632653 0.328163265,0 L0.300612245,0 Z M29.6608163,0 C29.6773469,0.101632653 29.6883673,0.203265306 29.6883673,0.306122449 L29.6883673,0 L29.6608163,0 Z"></path>
                        </g>
                        <g transform="translate(0.000000, 12.244898)" id="Shape" fill="#A1B2E6">
                            <path d="M14.9944898,5.51020408 C6.87918367,5.51020408 0.300612245,3.18 0.300612245,0.306122449 L0.300612245,7.95918367 L0.328163265,7.95918367 C0.775714286,10.6904082 7.17,12.8571429 14.9944898,12.8571429 C22.8189796,12.8571429 29.2132653,10.6904082 29.6608163,7.95918367 L29.6883673,7.95918367 L29.6883673,0.306122449 C29.6883673,3.18 23.1097959,5.51020408 14.9944898,5.51020408 Z M0.300612245,0 L0.300612245,0.306122449 C0.300612245,0.203265306 0.311632653,0.101632653 0.328163265,0 L0.300612245,0 Z M29.6608163,0 C29.6773469,0.101632653 29.6883673,0.203265306 29.6883673,0.306122449 L29.6883673,0 L29.6608163,0 Z"></path>
                        </g>
                        <ellipse id="Oval" fill="#91BAE1" cx="14.9944898" cy="5.20408163" rx="14.6938776" ry="5.20408163"></ellipse>
                        <g transform="translate(0.000000, 4.897959)" id="Shape" fill="#8697CB">
                            <path d="M14.9944898,5.51020408 C6.87918367,5.51020408 0.300612245,3.18 0.300612245,0.306122449 L0.300612245,7.95918367 L0.328163265,7.95918367 C0.775714286,10.6904082 7.17,12.8571429 14.9944898,12.8571429 C22.8189796,12.8571429 29.2132653,10.6904082 29.6608163,7.95918367 L29.6883673,7.95918367 L29.6883673,0.306122449 C29.6883673,3.18 23.1097959,5.51020408 14.9944898,5.51020408 Z M0.300612245,0 L0.300612245,0.306122449 C0.300612245,0.203265306 0.311632653,0.101632653 0.328163265,0 L0.300612245,0 Z M29.6608163,0 C29.6773469,0.101632653 29.6883673,0.203265306 29.6883673,0.306122449 L29.6883673,0 L29.6608163,0 Z"></path>
                        </g>
                    </g>
                </g>
            </g>
        </g>
    </g>
</svg>