<?xml version="1.0" encoding="UTF-8"?>
<svg width="940px" height="582px" viewBox="0 0 940 582" version="1.1" xmlns="http://www.w3.org/2000/svg" xmlns:xlink="http://www.w3.org/1999/xlink">
    <!-- Generator: Sketch 43.2 (39069) - http://www.bohemiancoding.com/sketch -->
    <title>bemtree</title>
    <desc>Created with Sketch.</desc>
    <defs></defs>
    <g id="Page-1" stroke="none" stroke-width="1" fill="none" fill-rule="evenodd">
        <g id="bemtree">
            <rect id="Rectangle-231" fill="#FFFFFF" opacity="0.4" x="0" y="0" width="940" height="520"></rect>
            <g id="Group-3" transform="translate(10.000000, 10.000000)">
                <g id="Group-2" transform="translate(38.363171, 150.680307)">
                    <g id="Group" transform="translate(46.994885, 33.248082) scale(-1, 1) rotate(90.000000) translate(-46.994885, -33.248082) translate(13.746803, -13.746803)">
                        <path d="M65.8011509,88.1892583 L61.7282609,84.1163683 C61.352858,83.7451667 60.7483908,83.7460229 60.3740409,84.1182864 C60.1935468,84.2972213 60.091802,84.5407083 60.091322,84.7948649 C60.090842,85.0490215 60.1916665,85.292891 60.3714834,85.4725064 L63.7647059,88.8650895 L60.3714834,92.258312 C60.0004584,92.6338903 60.0016,93.2383578 60.3740409,93.612532 C60.7512788,93.9897698 61.3548593,93.9878517 61.7282609,93.6144501 L65.8011509,89.5415601 C65.9795477,89.3626849 66.0795929,89.1202765 66.0792839,88.8676471 C66.0816422,88.6105922 65.9806425,88.3678708 65.8011509,88.1892583 Z" id="Shape" fill="#7E7E7E" fill-rule="nonzero"></path>
                        <polyline id="Shape" stroke="#7E7E7E" stroke-width="2" stroke-linecap="round" stroke-dasharray="4,4" points="7.03324808 2.55754476 26.2148338 2.55754476 26.2148338 88.8746803 60.741688 88.8746803"></polyline>
                        <circle id="Oval" fill="#7E7E7E" fill-rule="nonzero" cx="2.55754476" cy="2.55754476" r="2.55754476"></circle>
                    </g>
                    <g id="Group" transform="translate(139.386189, 33.248082) scale(-1, 1) rotate(90.000000) translate(-139.386189, -33.248082) translate(106.138107, -9.590793)">
                        <path d="M66.0818414,5.10421995 C66.0816422,4.85100143 65.9806425,4.60828002 65.8011509,4.42966752 L61.7282609,0.356777494 C61.352858,-0.014424072 60.7483908,-0.0135678862 60.3740409,0.358695652 C60.1935468,0.537630543 60.091802,0.78111751 60.091322,1.03527411 C60.090842,1.2894307 60.1916665,1.53330024 60.3714834,1.7129156 L63.7647059,5.10549872 L60.3714834,8.49872123 C60.0004584,8.87429948 60.0016,9.47876701 60.3740409,9.85294118 C60.7512788,10.230179 61.3548593,10.2282609 61.7282609,9.85485934 L65.8011509,5.78196931 C65.9795477,5.60309413 66.0795929,5.36068574 66.0792839,5.10805627 L66.0818414,5.10421995 Z" id="Shape" fill="#7E7E7E" fill-rule="nonzero"></path>
                        <polyline id="Shape" stroke="#7E7E7E" stroke-width="2" stroke-linecap="round" stroke-dasharray="4,4" points="7.03324808 83.1202046 26.2148338 83.1202046 26.2148338 5.11508951 60.741688 5.11508951"></polyline>
                        <circle id="Oval" fill="#7E7E7E" fill-rule="nonzero" cx="2.55754476" cy="83.1202046" r="2.55754476"></circle>
                    </g>
                </g>
                <g id="setings_cashe_file_icon" transform="translate(92.514066, 373.795396)">
                    <polygon id="Rectangle-231" fill="#FFCC00" opacity="0.4" points="51.3478261 57 0.196930946 57 0.196930946 159.30179 82.0383632 159.30179 82.0383632 87.6905371"></polygon>
                    <polygon id="Rectangle-232" fill="#E4A800" opacity="0.4" points="51.3478261 57 51.3478261 87.6905371 82.0383632 87.6905371"></polygon>
                    <text id="Result-BEMJSON" font-family="Roboto-Bold, Roboto" font-size="14" font-weight="bold" fill="#000000">
                        <tspan x="21.1283675" y="180.777494">Result </tspan>
                        <tspan x="8.59125808" y="196.777494">BEMJSON</tspan>
                    </text>
                    <path d="M18.0997523,115.183856 C18.0997523,114.124096 18.9629052,113.265739 20.0092384,113.265739 L43.0448717,113.265739 C44.0998364,113.265739 44.9543578,114.117383 44.9543578,115.183856 C44.9543578,116.243616 44.0912048,117.101974 43.0448717,117.101974 L20.0082793,117.101974 C19.5004404,117.10198 19.01354,116.899588 18.6553448,116.539593 C18.2971496,116.179598 18.0972003,115.691689 18.0997523,115.183856 Z M48.7896339,115.183856 C48.7896339,114.124096 49.654705,113.265739 50.716383,113.265739 L58.3715904,113.265739 C59.4309375,113.265739 60.289708,114.124509 60.289708,115.183856 C60.289708,116.243204 59.4309375,117.101974 58.3715904,117.101974 L50.7173421,117.101974 C50.206966,117.104526 49.7166178,116.903566 49.3548241,116.543572 C48.9930303,116.183579 48.7896275,115.694239 48.7896339,115.183856 L48.7896339,115.183856 Z M18.0997523,103.675151 C18.0997523,102.615391 18.9581099,101.757033 20.0121155,101.757033 L31.5323299,101.757033 C32.5882536,101.757033 33.4446931,102.608677 33.4446931,103.675151 C33.4446931,104.734911 32.5863355,105.593268 31.5323299,105.593268 L20.0121155,105.593268 C19.5037695,105.593783 19.0161802,105.391677 18.6572655,105.031682 C18.2983507,104.671687 18.0977105,104.183493 18.0997523,103.675151 Z M37.2809283,103.675151 C37.2809283,102.615391 38.1440812,101.757033 39.1904144,101.757033 L62.2260477,101.757033 C63.2810124,101.757033 64.1355338,102.608677 64.1355338,103.675151 C64.1355338,104.734911 63.2723809,105.593268 62.2260477,105.593268 L39.1894553,105.593268 C38.6816164,105.593275 38.194716,105.390883 37.8365208,105.030887 C37.4783256,104.670892 37.2783763,104.182983 37.2809283,103.675151 L37.2809283,103.675151 Z M18.0997523,126.692562 C18.0997523,125.632802 18.9533146,124.774444 20.0178699,124.774444 L50.7077515,124.774444 C51.7675115,124.774444 52.6258691,125.626089 52.6258691,126.692562 C52.6258691,127.752322 51.7723068,128.61068 50.7077515,128.61068 L20.0178699,128.61068 C18.9581099,128.61068 18.0997523,127.759035 18.0997523,126.692562 Z" id="Shape" fill="#827262" fill-rule="nonzero"></path>
                    <g id="Group" transform="translate(41.117647, 26.309463) scale(-1, 1) rotate(90.000000) translate(-41.117647, -26.309463) translate(14.902813, 21.194373)">
                        <path d="M52.0153453,5.10421995 C52.015146,4.85100143 51.9141463,4.60828002 51.7346547,4.42966752 L47.6617647,0.356777494 C47.2863618,-0.014424072 46.6818946,-0.0135678862 46.3075448,0.358695652 C46.1270507,0.537630543 46.0253058,0.78111751 46.0248258,1.03527411 C46.0243459,1.2894307 46.1251703,1.53330024 46.3049872,1.7129156 L49.6982097,5.10549872 L46.3049872,8.49872123 C45.9339622,8.87429948 45.9351038,9.47876701 46.3075448,9.85294118 C46.6847826,10.230179 47.2883632,10.2282609 47.6617647,9.85485934 L51.7346547,5.78196931 C51.9130515,5.60309413 52.0130967,5.36068574 52.0127877,5.10805627 L52.0153453,5.10421995 Z" id="Shape" fill="#7E7E7E" fill-rule="nonzero"></path>
                        <path d="M7.03324808,5.11508951 L45.3964194,5.11508951" id="Shape" stroke="#79818F" stroke-width="2" stroke-linecap="round" stroke-dasharray="4,4"></path>
                        <circle id="Oval" fill="#7E7E7E" fill-rule="nonzero" cx="2.55754476" cy="5.11508951" r="2.55754476"></circle>
                    </g>
                </g>
                <g id="setings_cashe_file_icon" transform="translate(91.792839, 222.291560)">
                    <polygon id="Rectangle-231" fill="#FFCC00" opacity="0.4" points="52.0690537 0 0.918158568 0 0.918158568 102.30179 82.7595908 102.30179 82.7595908 30.6905371"></polygon>
                    <polygon id="Rectangle-232" fill="#E4A800" opacity="0.4" points="52.0690537 0 52.0690537 30.6905371 82.7595908 30.6905371"></polygon>
                    <text id="Template-Engine" font-family="Roboto-Bold, Roboto" font-size="14" font-weight="bold" fill="#000000">
                        <tspan x="12.2690287" y="123.777494">Template </tspan>
                        <tspan x="20.4243021" y="139.777494">Engine</tspan>
                    </text>
                    <g id="map_menu_settings" transform="translate(11.787724, 25.575448)" fill="#666666">
                        <path d="M24.6297704,44.7570332 L20.1272629,44.7570332 C18.4691607,44.7570332 16.9460202,43.6112532 16.5037084,42.0324488 L15.2663695,37.6149297 C14.3250392,37.1830243 13.4256718,36.6660806 12.5773404,36.0685742 L8.06462579,37.2244246 C6.49271764,37.6283568 4.66676374,36.8686061 3.86039527,35.4900895 L1.60800741,31.6432225 C0.778956292,30.2277813 1.02392899,28.3524616 2.1909517,27.185422 L5.50829032,23.8599744 C5.46519327,23.368766 5.44251062,22.8730818 5.44251062,22.3785166 C5.44251062,21.8828325 5.46519327,21.3882673 5.50829032,20.8959399 L2.18868344,17.5704923 C1.02392899,16.4023338 0.778956292,14.5270141 1.61027568,13.110454 L3.86039527,9.26470588 C4.66676374,7.88842711 6.49158351,7.13203325 8.06349166,7.5326087 L12.5773404,8.68845908 C13.4256718,8.09095269 14.3250392,7.57400895 15.2663695,7.14210358 L16.5037084,2.7245844 C16.9460202,1.14578005 18.4702948,0 20.1272629,0 L24.6297704,0 C26.2878726,0 27.811013,1.14578005 28.2533248,2.7245844 L29.4906638,7.14210358 C30.4319941,7.57400895 31.3313614,8.09095269 32.1796928,8.68845908 L36.6924075,7.5326087 C38.2654497,7.13091432 40.0914036,7.88842711 40.896638,9.26582481 L43.1490258,13.1126918 C43.978077,14.5292519 43.7331043,16.4045716 42.5660815,17.5716113 L39.2487429,20.8959399 C39.29184,21.3882673 39.3145226,21.8828325 39.3145226,22.3785166 C39.3145226,22.8730818 39.29184,23.368766 39.2487429,23.8599744 L42.5683498,27.1865409 C43.7331043,28.3546995 43.978077,30.2300192 43.1478917,31.6454604 L40.896638,35.4912084 C40.0902695,36.8674872 38.2665839,37.6283568 36.6935416,37.2244246 L32.1796928,36.0685742 C31.3313614,36.6660806 30.4319941,37.1830243 29.4906638,37.6149297 L28.2533248,42.0324488 C27.811013,43.6112532 26.2867385,44.7570332 24.6297704,44.7570332 L24.6297704,44.7570332 L24.6297704,44.7570332 Z M20.7204144,40.2813299 L24.0366189,40.2813299 L25.7140014,34.2917199 L26.7846228,33.8866688 C28.0344372,33.415601 29.1946551,32.7476023 30.234655,31.9016944 L31.1272175,31.1743926 L37.2640104,32.7464834 L38.9221127,29.9133632 L34.4490927,25.4287084 L34.6260174,24.3153772 C34.7269552,23.6820652 34.7779912,23.0308504 34.7779912,22.3785166 C34.7779912,21.7261829 34.7269552,21.074968 34.6260174,20.441656 L34.4490927,19.3283248 L38.9221127,14.8436701 L37.2640104,12.0105499 L31.1272175,13.5815217 L30.234655,12.8542199 C29.1946551,12.0094309 28.0344372,11.3414322 26.7846228,10.8692455 L25.7140014,10.4653133 L24.0366189,4.47570332 L20.7204144,4.47570332 L19.0430319,10.4653133 L17.9724105,10.8692455 C16.722596,11.3414322 15.5623781,12.0094309 14.5223783,12.8542199 L13.6298157,13.5815217 L7.49302283,12.0105499 L5.83492059,14.8436701 L10.3079406,19.3283248 L10.1310159,20.441656 C10.030078,21.074968 9.97904206,21.7261829 9.97904206,22.3785166 C9.97904206,23.0308504 10.030078,23.6820652 10.1310159,24.3153772 L10.3079406,25.4287084 L5.83492059,29.9133632 L7.49302283,32.7464834 L13.6298157,31.1743926 L14.5223783,31.9016944 C15.5623781,32.7476023 16.722596,33.415601 17.9724105,33.8866688 L19.0430319,34.2917199 L20.7204144,40.2813299 L20.7204144,40.2813299 Z M22.3785166,29.0920716 C18.6707226,29.0920716 15.6649616,26.0863107 15.6649616,22.3785166 C15.6649616,18.6707226 18.6707226,15.6649616 22.3785166,15.6649616 C26.0863107,15.6649616 29.0920716,18.6707226 29.0920716,22.3785166 C29.0920716,26.0863107 26.0863107,29.0920716 22.3785166,29.0920716 L22.3785166,29.0920716 L22.3785166,29.0920716 Z M24.6163683,22.3785166 C24.6163683,21.1425853 23.614448,20.140665 22.3785166,20.140665 C21.1425853,20.140665 20.140665,21.1425853 20.140665,22.3785166 C20.140665,23.614448 21.1425853,24.6163683 22.3785166,24.6163683 C23.614448,24.6163683 24.6163683,23.614448 24.6163683,22.3785166 L24.6163683,22.3785166 Z" id="Shape"></path>
                    </g>
                    <g id="map_menu_settings" transform="translate(39.281330, 54.347826)" fill="#827262">
                        <path d="M26.8695366,51.1508951 L21.7238138,51.1508951 C19.8288398,51.1508951 18.0881079,49.8414322 17.5826087,48.0370844 L16.168507,42.988491 C15.092701,42.4948849 14.0648526,41.9040921 13.095331,41.2212276 L7.93794281,42.5421995 C6.14147636,43.0038363 4.05467189,42.1355499 3.13310794,40.5601023 L0.558950379,36.1636829 C-0.388536616,34.5460358 -0.108567819,32.4028133 1.22517243,31.0690537 L5.01641656,27.2685422 C4.96716279,26.7071611 4.94123975,26.140665 4.94123975,25.5754476 C4.94123975,25.0089514 4.96716279,24.443734 5.01641656,23.8810742 L1.22258012,20.0805627 C-0.108567819,18.7455243 -0.388536616,16.6023018 0.561542683,14.983376 L3.13310794,10.5882353 C4.05467189,9.01534527 6.14018021,8.15089514 7.93664666,8.60869565 L13.095331,9.92966752 C14.0648526,9.24680307 15.092701,8.65601023 16.168507,8.16240409 L17.5826087,3.11381074 C18.0881079,1.30946292 19.8301359,0 21.7238138,0 L26.8695366,0 C28.7645106,0 30.5052425,1.30946292 31.0107417,3.11381074 L32.4248434,8.16240409 C33.5006494,8.65601023 34.5284978,9.24680307 35.4980194,9.92966752 L40.6554076,8.60869565 C42.4531702,8.14961637 44.5399746,9.01534527 45.4602424,10.5895141 L48.0344,14.9859335 C48.981887,16.6048593 48.7019182,18.7480818 47.368178,20.0818414 L43.5769338,23.8810742 C43.6261876,24.443734 43.6521106,25.0089514 43.6521106,25.5754476 C43.6521106,26.140665 43.6261876,26.7071611 43.5769338,27.2685422 L47.3707703,31.0703325 C48.7019182,32.4053708 48.981887,34.5485934 48.0331039,36.1662404 L45.4602424,40.5613811 C44.5386785,42.1342711 42.4544663,43.0038363 40.6567037,42.5421995 L35.4980194,41.2212276 C34.5284978,41.9040921 33.5006494,42.4948849 32.4248434,42.988491 L31.0107417,48.0370844 C30.5052425,49.8414322 28.7632144,51.1508951 26.8695366,51.1508951 L26.8695366,51.1508951 L26.8695366,51.1508951 Z M22.4017012,46.0358056 L26.1916492,46.0358056 L28.1086578,39.1905371 L29.3322251,38.7276215 C30.7605844,38.1892583 32.0865478,37.4258312 33.275119,36.4590793 L34.2951905,35.6278772 L41.3086681,37.4245524 L43.2036421,34.1867008 L38.0916192,29.0613811 L38.2938189,27.7890026 C38.4091764,27.0652174 38.4675033,26.3209719 38.4675033,25.5754476 C38.4675033,24.8299233 38.4091764,24.0856777 38.2938189,23.3618926 L38.0916192,22.0895141 L43.2036421,16.9641944 L41.3086681,13.7263427 L34.2951905,15.5217391 L33.275119,14.6905371 C32.0865478,13.7250639 30.7605844,12.9616368 29.3322251,12.4219949 L28.1086578,11.9603581 L26.1916492,5.11508951 L22.4017012,5.11508951 L20.4846926,11.9603581 L19.2611253,12.4219949 C17.832766,12.9616368 16.5068026,13.7250639 15.3182314,14.6905371 L14.2981599,15.5217391 L7.28468228,13.7263427 L5.38970829,16.9641944 L10.5017312,22.0895141 L10.2995315,23.3618926 C10.1841739,24.0856777 10.1258471,24.8299233 10.1258471,25.5754476 C10.1258471,26.3209719 10.1841739,27.0652174 10.2995315,27.7890026 L10.5017312,29.0613811 L5.38970829,34.1867008 L7.28468228,37.4245524 L14.2981599,35.6278772 L15.3182314,36.4590793 C16.5068026,37.4258312 17.832766,38.1892583 19.2611253,38.7276215 L20.4846926,39.1905371 L22.4017012,46.0358056 L22.4017012,46.0358056 Z M24.2966752,33.2480818 C20.0591963,33.2480818 16.6240409,29.8129265 16.6240409,25.5754476 C16.6240409,21.3379687 20.0591963,17.9028133 24.2966752,17.9028133 C28.5341541,17.9028133 31.9693095,21.3379687 31.9693095,25.5754476 C31.9693095,29.8129265 28.5341541,33.2480818 24.2966752,33.2480818 L24.2966752,33.2480818 L24.2966752,33.2480818 Z M26.8542199,25.5754476 C26.8542199,24.1629546 25.7091682,23.0179028 24.2966752,23.0179028 C22.8841822,23.0179028 21.7391304,24.1629546 21.7391304,25.5754476 C21.7391304,26.9879405 22.8841822,28.1329923 24.2966752,28.1329923 C25.7091682,28.1329923 26.8542199,26.9879405 26.8542199,25.5754476 L26.8542199,25.5754476 Z" id="Shape"></path>
                    </g>
                </g>
                <g id="setings_cashe_file_icon" transform="translate(177.076726, 0.000000)">
                    <polygon id="Rectangle-231" fill="#FFCC00" opacity="0.4" points="51.1841432 0 0.0332480818 0 0.0332480818 102.30179 81.8746803 102.30179 81.8746803 30.6905371"></polygon>
                    <polygon id="Rectangle-232" fill="#E4A800" opacity="0.4" points="51.1841432 0 51.1841432 30.6905371 81.8746803 30.6905371"></polygon>
                    <text id="BEMTREE-Template" font-family="Roboto-Bold, Roboto" font-size="14" font-weight="bold" fill="#000000">
                        <tspan x="9.84361263" y="123.777494">BEMTREE </tspan>
                        <tspan x="11.3851165" y="139.777494">Template</tspan>
                    </text>
                    <path d="M18.5754556,58.1838565 C18.5754556,57.1240965 19.4386085,56.2657389 20.4849417,56.2657389 L43.520575,56.2657389 C44.5755397,56.2657389 45.4300611,57.1173831 45.4300611,58.1838565 C45.4300611,59.2436164 44.5669082,60.1019741 43.520575,60.1019741 L20.4839826,60.1019741 C19.9761437,60.1019805 19.4892433,59.8995881 19.1310481,59.5395929 C18.7728529,59.1795977 18.5729037,58.6916889 18.5754556,58.1838565 Z M49.2653372,58.1838565 C49.2653372,57.1240965 50.1304083,56.2657389 51.1920864,56.2657389 L58.8472937,56.2657389 C59.9066408,56.2657389 60.7654113,57.1245094 60.7654113,58.1838565 C60.7654113,59.2432036 59.9066408,60.1019741 58.8472937,60.1019741 L51.1930454,60.1019741 C50.6826693,60.104526 50.1923212,59.9035663 49.8305274,59.5435725 C49.4687337,59.1835787 49.2653309,58.6942389 49.2653372,58.1838565 L49.2653372,58.1838565 Z M18.5754556,46.6751508 C18.5754556,45.6153909 19.4338132,44.7570332 20.4878189,44.7570332 L32.0080332,44.7570332 C33.0639569,44.7570332 33.9203964,45.6086775 33.9203964,46.6751508 C33.9203964,47.7349108 33.0620388,48.5932685 32.0080332,48.5932685 L20.4878189,48.5932685 C19.9794728,48.5937829 19.4918835,48.3916768 19.1329688,48.0316821 C18.7740541,47.6716874 18.5734138,47.183493 18.5754556,46.6751508 Z M37.7566316,46.6751508 C37.7566316,45.6153909 38.6197845,44.7570332 39.6661177,44.7570332 L62.701751,44.7570332 C63.7567157,44.7570332 64.6112371,45.6086775 64.6112371,46.6751508 C64.6112371,47.7349108 63.7480842,48.5932685 62.701751,48.5932685 L39.6651586,48.5932685 C39.1573197,48.5932749 38.6704193,48.3908825 38.3122241,48.0308873 C37.9540289,47.6708921 37.7540797,47.1829833 37.7566316,46.6751508 L37.7566316,46.6751508 Z M18.5754556,69.6925621 C18.5754556,68.6328021 19.4290179,67.7744445 20.4935732,67.7744445 L51.1834548,67.7744445 C52.2432148,67.7744445 53.1015724,68.6260887 53.1015724,69.6925621 C53.1015724,70.752322 52.2480101,71.6106797 51.1834548,71.6106797 L20.4935732,71.6106797 C19.4338132,71.6106797 18.5754556,70.7590355 18.5754556,69.6925621 Z" id="Shape" fill="#827262" fill-rule="nonzero"></path>
                </g>
                <g id="setings_cashe_file_icon">
                    <polygon id="Rectangle-231" fill="#FFCC00" opacity="0.4" points="51.1508951 0 0 0 0 102.30179 81.8414322 102.30179 81.8414322 30.6905371"></polygon>
                    <polygon id="Rectangle-232" fill="#E4A800" opacity="0.4" points="51.1508951 0 51.1508951 30.6905371 81.8414322 30.6905371"></polygon>
                    <text id="Data" font-family="Roboto-Bold, Roboto" font-size="14" font-weight="bold" fill="#000000">
                        <tspan x="26.4913545" y="121.277494">Data</tspan>
                    </text>
                    <g id="Group" transform="translate(7.033248, 19.181586)">
                        <path d="M31.3299233,2.55754476 L51.1508951,24.2966752" id="Line" stroke="#979797" stroke-width="0.5" stroke-linecap="square"></path>
                        <path d="M48.5933504,19.8209719 L48.5933504,46.6751918" id="Line" stroke="#979797" stroke-width="0.5" stroke-linecap="square"></path>
                        <path d="M19.1815857,19.8209719 L19.1815857,46.6751918" id="Line" stroke="#979797" stroke-width="0.5" stroke-linecap="square"></path>
                        <path d="M19.1815857,21.7391304 L36.4450128,1.91815857" id="Line" stroke="#979797" stroke-width="0.5" stroke-linecap="square"></path>
                        <path d="M3.83631714,64.5780051 L19.1815857,46.0358056" id="Line" stroke="#979797" stroke-width="0.5" stroke-linecap="square"></path>
                        <path d="M33.2480818,64.5780051 L48.5933504,46.0358056" id="Line" stroke="#979797" stroke-width="0.5" stroke-linecap="square"></path>
                        <path d="M33.887468,63.2992327 L19.8209719,46.6751918" id="Line" stroke="#979797" stroke-width="0.5" stroke-linecap="square"></path>
                        <circle id="Oval" fill="#EE0000" fill-rule="nonzero" cx="48.5933504" cy="46.6751918" r="5.11508951"></circle>
                        <circle id="Oval" fill="#EE0000" fill-rule="nonzero" cx="19.1815857" cy="46.6751918" r="5.11508951"></circle>
                        <circle id="Oval" fill="#EE0000" fill-rule="nonzero" cx="48.5933504" cy="21.0997442" r="5.11508951"></circle>
                        <circle id="Oval" fill="#EE0000" fill-rule="nonzero" cx="19.1815857" cy="21.0997442" r="5.11508951"></circle>
                        <circle id="Oval" fill="#EE0000" fill-rule="nonzero" cx="33.887468" cy="5.11508951" r="5.11508951"></circle>
                        <circle id="Oval" fill="#EE0000" fill-rule="nonzero" cx="33.887468" cy="62.6598465" r="5.11508951"></circle>
                        <circle id="Oval" fill="#EE0000" fill-rule="nonzero" cx="5.11508951" cy="62.6598465" r="5.11508951"></circle>
                    </g>
                    <g id="Group" transform="translate(54.987212, 62.020460)" fill-rule="nonzero">
                        <path d="M30.9757033,5.11508951 C30.508312,2.26214834 23.8305627,0 15.6592072,0 C7.48785166,0 0.810102302,2.26214834 0.342071611,5.11508951 L0.313938619,5.11508951 L0.313938619,28.7723785 L0.342710997,28.7723785 C0.810102302,31.6246803 7.48785166,33.887468 15.6592072,33.887468 C23.8305627,33.887468 30.508312,31.6246803 30.9757033,28.7723785 L31.0044757,28.7723785 L31.0044757,5.11508951 L30.9757033,5.11508951 Z" id="Shape" fill="#545E73"></path>
                        <g transform="translate(0.000000, 20.460358)" id="Shape" fill="#5C8AE6">
                            <path d="M15.6592072,5.7544757 C7.18414322,5.7544757 0.313938619,3.32097187 0.313938619,0.319693095 L0.313938619,8.31202046 L0.342710997,8.31202046 C0.810102302,11.1643223 7.48785166,13.42711 15.6592072,13.42711 C23.8305627,13.42711 30.508312,11.1643223 30.9757033,8.31202046 L31.0044757,8.31202046 L31.0044757,0.319693095 C31.0044757,3.32097187 24.1342711,5.7544757 15.6592072,5.7544757 Z M0.313938619,0 L0.313938619,0.319693095 C0.313938619,0.212276215 0.32544757,0.106138107 0.342710997,0 L0.313938619,0 Z M30.9757033,0 C30.9929668,0.106138107 31.0044757,0.212276215 31.0044757,0.319693095 L31.0044757,0 L30.9757033,0 Z"></path>
                        </g>
                        <g transform="translate(0.000000, 12.787724)" id="Shape" fill="#A1B2E6">
                            <path d="M15.6592072,5.7544757 C7.18414322,5.7544757 0.313938619,3.32097187 0.313938619,0.319693095 L0.313938619,8.31202046 L0.342710997,8.31202046 C0.810102302,11.1643223 7.48785166,13.42711 15.6592072,13.42711 C23.8305627,13.42711 30.508312,11.1643223 30.9757033,8.31202046 L31.0044757,8.31202046 L31.0044757,0.319693095 C31.0044757,3.32097187 24.1342711,5.7544757 15.6592072,5.7544757 Z M0.313938619,0 L0.313938619,0.319693095 C0.313938619,0.212276215 0.32544757,0.106138107 0.342710997,0 L0.313938619,0 Z M30.9757033,0 C30.9929668,0.106138107 31.0044757,0.212276215 31.0044757,0.319693095 L31.0044757,0 L30.9757033,0 Z"></path>
                        </g>
                        <ellipse id="Oval" fill="#91BAE1" cx="15.6592072" cy="5.43478261" rx="15.3452685" ry="5.43478261"></ellipse>
                        <g transform="translate(0.000000, 5.115090)" id="Shape" fill="#8697CB">
                            <path d="M15.6592072,5.7544757 C7.18414322,5.7544757 0.313938619,3.32097187 0.313938619,0.319693095 L0.313938619,8.31202046 L0.342710997,8.31202046 C0.810102302,11.1643223 7.48785166,13.42711 15.6592072,13.42711 C23.8305627,13.42711 30.508312,11.1643223 30.9757033,8.31202046 L31.0044757,8.31202046 L31.0044757,0.319693095 C31.0044757,3.32097187 24.1342711,5.7544757 15.6592072,5.7544757 Z M0.313938619,0 L0.313938619,0.319693095 C0.313938619,0.212276215 0.32544757,0.106138107 0.342710997,0 L0.313938619,0 Z M30.9757033,0 C30.9929668,0.106138107 31.0044757,0.212276215 31.0044757,0.319693095 L31.0044757,0 L30.9757033,0 Z"></path>
                        </g>
                    </g>
                </g>
            </g>
        </g>
    </g>
</svg>