<svg width="90" height="40" viewBox="0 0 90 40" xmlns="http://www.w3.org/2000/svg"><title>Artboard</title><g fill="none"><g transform="translate(50)"><circle fill="#65A2D9" cx="20" cy="20" r="20"/><path d="M30.704 10.885c-2.086 1.81-4.16 3.396-5.856 5.613-4.17 5.03-9.266 12.164-16.202 11.1l12.392 12.375c10.504-.537 18.867-9.179 18.96-19.795l-9.294-9.293z" fill="#3A7CA5"/><path d="M31.084 12.693a9.05 9.05 0 0 1-1.579.532 4.92 4.92 0 0 0 1.3-2.069.258.258 0 0 0-.378-.3 9.107 9.107 0 0 1-2.414.997.64.64 0 0 1-.573-.143 4.936 4.936 0 0 0-3.266-1.232 5.25 5.25 0 0 0-1.564.241 4.783 4.783 0 0 0-3.223 3.446 5.266 5.266 0 0 0-.117 1.817.177.177 0 0 1-.045.139.184.184 0 0 1-.153.06 12.943 12.943 0 0 1-8.896-4.752.258.258 0 0 0-.423.033 4.934 4.934 0 0 0-.669 2.481c0 1.338.538 2.6 1.472 3.52a4.425 4.425 0 0 1-1.126-.437.258.258 0 0 0-.384.223 4.943 4.943 0 0 0 2.884 4.553l-.106.001a4.42 4.42 0 0 1-.832-.08.258.258 0 0 0-.294.333 4.947 4.947 0 0 0 3.908 3.365 9.109 9.109 0 0 1-5.102 1.55l-.57-.001a.378.378 0 0 0-.37.285.39.39 0 0 0 .187.432 13.547 13.547 0 0 0 6.808 1.836c2.092 0 4.05-.415 5.817-1.235a12.847 12.847 0 0 0 4.257-3.19 13.983 13.983 0 0 0 2.607-4.365c.58-1.548.886-3.2.886-4.777v-.076a.84.84 0 0 1 .314-.654 9.76 9.76 0 0 0 1.963-2.154c.144-.214-.083-.484-.32-.379z" fill="#FFF"/><path d="M31.084 12.693a9.055 9.055 0 0 1-1.579.532 4.921 4.921 0 0 0 1.3-2.069.258.258 0 0 0-.378-.3 9.107 9.107 0 0 1-2.414.997.64.64 0 0 1-.573-.143 4.936 4.936 0 0 0-3.266-1.232c-.521 0-1.047.08-1.564.241a4.782 4.782 0 0 0-2.655 2.074v16.053a12.847 12.847 0 0 0 5.678-3.747 13.984 13.984 0 0 0 2.607-4.366c.58-1.548.886-3.2.886-4.778v-.075a.84.84 0 0 1 .314-.654 9.76 9.76 0 0 0 1.963-2.154c.144-.214-.083-.484-.32-.379z" fill="#D1D1D1"/></g><circle fill="#D42428" cx="19.997" cy="19.997" r="19.997"/><path d="M34.137 5.855c7.809 7.81 7.81 20.472 0 28.282-7.81 7.81-20.472 7.81-28.282 0L34.137 5.855z" fill="#CC202D"/><path d="M39.69 23.457L26.23 9.999l-1.085 1.085L24.06 10l-1.19 1.19.8.799-.261.26-2.072-2.072-.089.09-2.792-2.793-1.19 1.19.325.325-.478.478L15.1 7.453l-.834.835 1.962 4.726-.884 3.628 2.417 2.417-6.112.427-.092 10.605 9.834 9.847c9.215-.655 16.739-7.547 18.299-16.481z" fill="#BA202E"/><path d="M27.15 24.634h-1.29l.006-.75c0-.332.273-.604.607-.604h.083a.61.61 0 0 1 .609.605l-.015.749zm-4.837-1.605c-.327 0-.594.22-.594.489v3.642c0 .27.267.488.594.488.328 0 .596-.219.596-.488v-3.643c0-.268-.268-.488-.596-.488zm7.853-2.037v6.928c0 1.662-1.44 3.022-3.203 3.022h-13.17c-1.763 0-3.204-1.36-3.204-3.022v-6.928c0-1.662 1.441-3.023 3.204-3.023h13.17c1.762 0 3.203 1.36 3.203 3.023zm-15.495 7.68v-7.298h1.632v-1.081l-4.352-.007v1.063l1.358.004v7.32h1.362zm4.894-6.21h-1.361v3.897c0 .564.034.846-.002.945-.111.302-.609.623-.802.033-.033-.104-.004-.416-.005-.952l-.006-3.924h-1.354l.005 3.862c0 .592-.013 1.034.005 1.235.033.354.02.767.35 1.003.612.441 1.786-.066 2.08-.697l-.003.805 1.093.001v-6.208zm4.355 4.462l-.003-3.244c-.001-1.236-.926-1.977-2.182-.976l.006-2.412-1.36.002-.007 8.324 1.118-.016.102-.52c1.43 1.313 2.328.414 2.326-1.158zm4.26-.43l-1.02.006-.003.138v.57a.557.557 0 0 1-.558.553h-.2a.557.557 0 0 1-.558-.553v-1.499h2.337v-.88c0-.642-.016-1.285-.07-1.652-.166-1.163-1.798-1.347-2.623-.752a1.54 1.54 0 0 0-.572.77c-.116.334-.173.79-.173 1.37V26.5c0 3.215 3.906 2.76 3.44-.004zm-5.235-10.5a.92.92 0 0 0 .327.414.951.951 0 0 0 .557.154.86.86 0 0 0 .521-.163c.151-.109.279-.27.382-.488l-.025.534h1.517V9.992h-1.195v5.022a.498.498 0 0 1-.995 0V9.992h-1.246v4.352c0 .555.01.925.026 1.112a1.9 1.9 0 0 0 .13.538zm-4.598-3.645c0-.62.051-1.103.154-1.451.103-.348.289-.628.557-.838.269-.212.612-.317 1.03-.317.35 0 .65.069.903.203.251.136.447.312.581.53a2.1 2.1 0 0 1 .282.672c.05.232.075.584.075 1.056v1.633c0 .598-.024 1.038-.07 1.318a2.1 2.1 0 0 1-.298.784 1.416 1.416 0 0 1-.585.536c-.24.117-.513.174-.824.174-.345 0-.637-.048-.876-.148a1.215 1.215 0 0 1-.56-.447 1.97 1.97 0 0 1-.284-.724c-.058-.282-.085-.706-.085-1.272v-1.709zm1.188 2.564c0 .365.272.663.603.663.331 0 .602-.298.602-.663v-3.436c0-.365-.27-.663-.602-.663-.331 0-.603.298-.603.663v3.436zm-4.2 1.734h1.432l.001-4.949 1.692-4.24h-1.566l-.9 3.15-.911-3.158h-1.55l1.8 4.25.002 4.947z" fill="#FFF"/></g></svg>