<svg width="88" height="40" viewBox="0 0 88 40" xmlns="http://www.w3.org/2000/svg"><title>Group 2</title><g fill="none" fill-rule="evenodd"><path d="M81.786 40h-2.95a1.135 1.135 0 1 1 0-2.27h2.95a3.95 3.95 0 0 0 3.945-3.944V6.214a3.95 3.95 0 0 0-3.945-3.945H64.747a1.135 1.135 0 1 1 0-2.269h17.04A6.22 6.22 0 0 1 88 6.214v27.572A6.22 6.22 0 0 1 81.786 40zm-11.154 0H54.214A6.22 6.22 0 0 1 48 33.786V6.214A6.22 6.22 0 0 1 54.214 0h2.553a1.135 1.135 0 1 1 0 2.27h-2.553a3.95 3.95 0 0 0-3.945 3.944v27.572a3.95 3.95 0 0 0 3.945 3.945h16.418a1.135 1.135 0 1 1 0 2.269z" fill="#FFF"/><path d="M79.441 13.217L76.506 12.1c-.622-1.392-1.637-2.387-3.038-2.713-4.1-.953-6.262 2.893-5.821 5.63.062.386.166.755.309 1.102-.367.044-5.721.6-10.323-2.946a.618.618 0 0 0-.98.377c-.253 1.254-.188 3.536 2.768 5.397 0 0-.586.07-1.316-.045a.62.62 0 0 0-.687.815c.414 1.202 1.524 3.02 4.469 3.227 0 0-.428.246-1.205.371a.618.618 0 0 0-.383.997c.703.868 2.102 2.004 4.53 1.804 0 0 .173 2.01-6.945 3.252 0 0 3.577 1.395 7.867 1.395 11.902 0 11.908-9.949 11.454-15.725l2.236-1.82z" fill="#595A5B"/><path d="M65.751 31.897c-2.329 0-4.446-.397-5.811-.73a25 25 0 0 1-1.781-.503c-.783-.254-1.348-.438-1.407-1.211a1.134 1.134 0 0 1 .937-1.203c2.294-.4 3.723-.865 4.61-1.27a5.956 5.956 0 0 1-2.882-1.955 1.755 1.755 0 0 1-.297-1.659c-1.682-.866-2.442-2.312-2.775-3.28a1.758 1.758 0 0 1 .484-1.876c-1.618-1.939-1.476-3.958-1.29-4.885.166-.82.89-1.414 1.725-1.414.386 0 .753.125 1.061.363 2.979 2.295 6.304 2.729 8.178 2.764-.226-1.72.343-3.613 1.505-4.976a5.468 5.468 0 0 1 4.22-1.958c.486 0 .99.06 1.497.177 1.55.36 2.789 1.365 3.604 2.918l2.516.959a1.135 1.135 0 0 1 .312 1.94l-1.777 1.446c.288 4.246.108 9.382-3.1 12.852-2.147 2.323-5.353 3.5-9.529 3.5zm-3.283-2.537a21.24 21.24 0 0 0 3.283.268c3.517 0 6.163-.933 7.864-2.773 2.761-2.988 2.765-7.837 2.46-11.729-.03-.371.125-.733.414-.969l.712-.579-1.099-.419a1.135 1.135 0 0 1-.632-.597c-.511-1.145-1.271-1.841-2.259-2.07a4.362 4.362 0 0 0-.983-.12c-1.243 0-2.041.632-2.492 1.16-.767.9-1.147 2.197-.97 3.303.048.294.128.581.24.853a1.134 1.134 0 0 1-.916 1.556c-.127.016-.6.066-1.323.066-1.956 0-5.622-.365-9.071-2.694.043 1.026.568 2.26 2.329 3.37a1.135 1.135 0 0 1-.469 2.086 5.293 5.293 0 0 1-.719.029c.618 1.032 1.667 1.607 3.13 1.71a1.135 1.135 0 0 1 .485 2.115c-.06.035-.283.156-.65.28.56.435 1.361.797 2.474.797.15 0 .304-.006.46-.019.622-.051 1.17.41 1.223 1.033.023.263 0 1.192-1.237 2.154-.564.438-1.317.835-2.254 1.189z" fill="#FFE3DB"/><path d="M30.776 39.922a1.132 1.132 0 0 1 0-2.265h2.944a3.941 3.941 0 0 0 3.937-3.937V6.202a3.941 3.941 0 0 0-3.937-3.937H16.715a1.132 1.132 0 0 1 0-2.265H33.72a6.209 6.209 0 0 1 6.202 6.202V33.72a6.209 6.209 0 0 1-6.202 6.202h-2.944zm-8.188 0H6.202A6.209 6.209 0 0 1 0 33.72V6.202A6.209 6.209 0 0 1 6.202 0H8.75a1.132 1.132 0 0 1 0 2.265H6.202a3.941 3.941 0 0 0-3.937 3.937V33.72a3.941 3.941 0 0 0 3.937 3.937h16.386a1.132 1.132 0 0 1 0 2.265z" fill="#FFF"/><path d="M28.039 7.958H11.883a3.926 3.926 0 0 0-3.926 3.925V28.04a3.926 3.926 0 0 0 3.926 3.926H28.04a3.926 3.926 0 0 0 3.926-3.926V11.883a3.925 3.925 0 0 0-3.926-3.925zM19.96 25.792a5.83 5.83 0 1 1 0-11.662 5.83 5.83 0 0 1 0 11.662z" stroke="#FFF" fill="#58595A"/><g transform="translate(6.784 6.784)"><path d="M21.255 26.313H5.1a5.064 5.064 0 0 1-5.058-5.058V5.1A5.064 5.064 0 0 1 5.1.04h16.155a5.064 5.064 0 0 1 5.058 5.06v16.155a5.064 5.064 0 0 1-5.058 5.058zM5.1 2.306A2.796 2.796 0 0 0 2.306 5.1v16.155A2.796 2.796 0 0 0 5.1 24.05h16.155a2.796 2.796 0 0 0 2.794-2.794V5.1a2.796 2.796 0 0 0-2.794-2.794H5.1zm8.077 17.835a6.971 6.971 0 0 1-6.963-6.964 6.971 6.971 0 0 1 6.963-6.963 6.971 6.971 0 0 1 6.964 6.963 6.971 6.971 0 0 1-6.964 6.964zm0-11.662a4.704 4.704 0 0 0-4.698 4.698 4.704 4.704 0 0 0 4.698 4.699 4.704 4.704 0 0 0 4.699-4.699 4.704 4.704 0 0 0-4.699-4.698z" fill="#FFE3DB"/><ellipse fill="#FFF" cx="20.227" cy="6.043" rx="1.594" ry="1.594"/></g></g></svg>