<?xml version="1.0" encoding="UTF-8" standalone="no"?>
<svg width="88px" height="40px" viewBox="0 0 88 40" version="1.1" xmlns="http://www.w3.org/2000/svg" xmlns:xlink="http://www.w3.org/1999/xlink">
    <!-- Generator: Sketch 40.3 (33839) - http://www.bohemiancoding.com/sketch -->
    <title>Group 2</title>
    <desc>Created with Sketch.</desc>
    <defs></defs>
    <g id="Page-1" stroke="none" stroke-width="1" fill="none" fill-rule="evenodd">
        <g id="Group-2">
            <g id="twitter" transform="translate(48.000000, 0.000000)">
                <g id="Group" fill="#FFFFFF">
                    <path d="M33.78625,40 L30.8357812,40 C30.2091406,40 29.7011719,39.4920312 29.7011719,38.8653906 C29.7011719,38.23875 30.2091406,37.7307812 30.8357812,37.7307812 L33.78625,37.7307812 C35.9611719,37.7307812 37.7307812,35.96125 37.7307812,33.78625 L37.7307812,6.21375 C37.7307812,4.03882813 35.96125,2.26921875 33.78625,2.26921875 L16.7474219,2.26921875 C16.1207812,2.26921875 15.6128125,1.76125 15.6128125,1.13460937 C15.6128125,0.50796875 16.1207812,0 16.7474219,0 L33.78625,0 C37.2125781,0 40,2.78742188 40,6.21375 L40,33.78625 C40,37.2125781 37.2125781,40 33.78625,40 L33.78625,40 Z" id="Shape"></path>
                    <path d="M22.6322656,40 L6.21375,40 C2.78742187,40 0,37.2125781 0,33.78625 L0,6.21375 C0,2.78742188 2.78742187,0 6.21375,0 L8.7671875,0 C9.39382812,0 9.90179687,0.50796875 9.90179687,1.13460937 C9.90179687,1.76125 9.39382812,2.26921875 8.7671875,2.26921875 L6.21375,2.26921875 C4.03882812,2.26921875 2.26921875,4.03875 2.26921875,6.21375 L2.26921875,33.78625 C2.26921875,35.9611719 4.03875,37.7307812 6.21375,37.7307812 L22.6322656,37.7307812 C23.2589062,37.7307812 23.766875,38.23875 23.766875,38.8653906 C23.766875,39.4920313 23.2589062,40 22.6322656,40 L22.6322656,40 Z" id="Shape"></path>
                </g>
                <path d="M31.44125,13.2174219 L28.5058594,12.0991406 C27.88375,10.7071094 26.869375,9.71179688 25.4682812,9.38617188 C21.3686719,8.4334375 19.2060937,12.279375 19.6465625,15.0157812 C19.70875,15.401875 19.8134375,15.770625 19.955625,16.1179687 C19.5888281,16.161875 14.2348437,16.7185156 9.63273438,13.1723437 C9.26984375,12.8928125 8.74273437,13.0998437 8.65234375,13.5490625 C8.3996875,14.8030469 8.4646875,17.0852344 11.4207812,18.9460156 C11.4207812,18.9460156 10.8347656,19.0165625 10.1050781,18.9011719 C9.63929687,18.8275 9.26429687,19.2704687 9.4178125,19.7164062 C9.83171875,20.9182812 10.9419531,22.7353125 13.8869531,22.9427344 C13.8869531,22.9427344 13.4586719,23.1888281 12.6821094,23.3144531 C12.2153125,23.3899219 12.0016406,23.94375 12.2992969,24.31125 C13.0017187,25.1785156 14.400625,26.3147656 16.8288281,26.1151562 C16.8288281,26.1151562 17.0019531,28.1257812 9.88390625,29.3673437 C9.88359375,29.3674219 13.4607812,30.7623437 17.7514844,30.7623437 C29.6532812,30.7623437 29.6590625,20.8132031 29.2054687,15.0375 L31.44125,13.2174219 L31.44125,13.2174219 Z" id="Shape" fill="#595A5B"></path>
                <path d="M17.75125,31.8967969 C15.4221875,31.8967969 13.3054688,31.5 11.9398438,31.1671094 C11.1664844,30.9786719 10.5444531,30.7896094 10.1589063,30.664375 C9.37632813,30.41 8.81085938,30.2263281 8.75234375,29.4530469 C8.708125,28.870625 9.11335938,28.3498437 9.68875,28.2495312 C11.9827344,27.8494531 13.4123438,27.3846094 14.2991406,26.9799219 C13.1653906,26.6269531 12.1761719,25.9621875 11.4174219,25.0253906 C11.0410938,24.5605469 10.9297656,23.9308594 11.1196875,23.3660156 C9.4375,22.5000781 8.678125,21.0536719 8.34476563,20.0860937 C8.1603125,19.55 8.24585938,18.9554687 8.57382813,18.4957031 C8.6490625,18.3903125 8.73492188,18.2946094 8.829375,18.2096875 C7.21117188,16.2710937 7.353125,14.2517187 7.53992188,13.325 C7.705,12.5055469 8.42992188,11.9109375 9.26367188,11.9109375 C9.65,11.9109375 10.0170313,12.0363281 10.3250781,12.2738281 C13.3038281,14.5690625 16.629375,15.0028125 18.5030469,15.0382031 C18.2771094,13.3179687 18.84625,11.4254687 20.008125,10.0616406 C21.0838281,8.7990625 22.5825,8.10359375 24.2279688,8.10359375 C24.7138281,8.10359375 25.2175,8.16335938 25.7248438,8.28125 C27.2753906,8.64164062 28.5135938,9.64640625 29.3294531,11.1990625 L31.845,12.1575 C32.2238281,12.3017969 32.496875,12.6373437 32.56125,13.0374219 C32.6255469,13.4375781 32.4716406,13.841875 32.1571875,14.0977344 L30.3797656,15.544375 C30.6677344,19.79 30.4880469,24.9261719 27.2805469,28.3955469 C25.1327344,30.7186719 21.9265625,31.8967969 17.75125,31.8967969 L17.75125,31.8967969 Z M14.4682031,29.36 C15.465625,29.5170312 16.5828125,29.6275781 17.7513281,29.6275781 C21.2680469,29.6275781 23.9136719,28.6946875 25.6146875,26.8547656 C28.3764844,23.8674219 28.3798438,19.0175781 28.0742188,15.1261719 C28.0450781,14.7546875 28.2000781,14.3925 28.4891406,14.1573437 L29.2008594,13.5779687 L28.1019531,13.1592969 C27.8203125,13.0519531 27.5929688,12.8370312 27.47,12.5619531 C26.9585156,11.4173437 26.1985156,10.7207031 25.2114063,10.49125 C24.8721875,10.4124219 24.5414063,10.3724219 24.228125,10.3724219 C22.985,10.3724219 22.1866406,11.0035156 21.735625,11.5328906 C20.9689844,12.4328906 20.5886719,13.7290625 20.7666406,14.8353906 C20.8139844,15.129375 20.894375,15.4163281 21.005625,15.6880469 C21.1398438,16.0159375 21.1132031,16.3876562 20.9335938,16.6929687 C20.7539844,16.9982812 20.4421094,17.2022656 20.0903125,17.244375 C19.9626563,17.2596875 19.4898438,17.3095312 18.7673438,17.3095312 C16.8107031,17.3095312 13.1450781,16.9446094 9.6959375,14.6164844 C9.73875,15.6417187 10.2635938,16.876875 12.025,17.985625 C12.4315625,18.2415625 12.6328906,18.7257031 12.5276563,19.1945312 C12.4223438,19.6633594 12.0332813,20.0148437 11.5561719,20.0722656 C11.5153125,20.0771094 11.2942969,20.1017969 10.9621094,20.1017969 C10.9203906,20.1017969 10.87875,20.1014844 10.8371094,20.100625 C11.4546875,21.1334375 12.5036719,21.7077344 13.9666406,21.8107031 C14.4646094,21.8457812 14.8811719,22.2021094 14.9928125,22.6886719 C15.1044531,23.1753125 14.885,23.6775781 14.4521875,23.9263281 C14.3914844,23.9611719 14.1692969,24.081875 13.8011719,24.2055469 C14.361875,24.6407812 15.1632813,25.0032812 16.2764844,25.0032812 C16.4257031,25.0032812 16.5803125,24.9967969 16.7358594,24.9839844 C17.3576563,24.9330469 17.905625,25.3948437 17.9592969,26.0174219 C17.981875,26.2795312 17.9592969,27.2094531 16.721875,28.1711719 C16.158125,28.6094531 15.4050781,29.00625 14.4682031,29.36 L14.4682031,29.36 Z" id="Shape" fill="#FFE3DB"></path>
            </g>
            <g id="instagram">
                <g id="Group" fill="#FFFFFF">
                    <path d="M30.7755945,39.9221053 C30.1502534,39.9221053 29.6431969,39.4151267 29.6431969,38.7897076 C29.6431969,38.1642885 30.1502534,37.6573099 30.7755945,37.6573099 L33.7203899,37.6573099 C35.8910721,37.6573099 37.657232,35.8912281 37.657232,33.7204678 L37.657232,6.2017154 C37.657232,4.03103314 35.8911501,2.26487329 33.7203899,2.26487329 L16.7147758,2.26487329 C16.0894347,2.26487329 15.5823782,1.75789474 15.5823782,1.13247563 C15.5823782,0.50705653 16.0894347,7.79727096e-05 16.7147758,7.79727096e-05 L33.7204678,7.79727096e-05 C37.139961,7.79727096e-05 39.9221053,2.78206628 39.9221053,6.2017154 L39.9221053,33.7204678 C39.9220273,37.140117 37.140039,39.9221053 33.7203899,39.9221053 L30.7755945,39.9221053 Z" id="Shape"></path>
                    <path d="M22.5882261,39.9221053 L6.20163743,39.9221053 C2.7819883,39.9221053 0,37.140117 0,33.7204678 L0,6.2017154 C0,2.78206628 2.7819883,7.79727096e-05 6.20163743,7.79727096e-05 L8.75009747,7.79727096e-05 C9.3754386,7.79727096e-05 9.88249513,0.50705653 9.88249513,1.13247563 C9.88249513,1.75789474 9.3754386,2.26487329 8.75009747,2.26487329 L6.20163743,2.26487329 C4.03095517,2.26487329 2.26479532,4.03095517 2.26479532,6.2017154 L2.26479532,33.7204678 C2.26479532,35.8911501 4.03087719,37.6573099 6.20163743,37.6573099 L22.5882261,37.6573099 C23.2135673,37.6573099 23.7206238,38.1642885 23.7206238,38.7897076 C23.7207018,39.4151267 23.2135673,39.9221053 22.5882261,39.9221053 L22.5882261,39.9221053 Z" id="Shape"></path>
                </g>
                <path d="M28.0389084,7.95758285 L11.8831189,7.95758285 C9.71500975,7.95758285 7.9574269,9.71516569 7.9574269,11.8832749 L7.9574269,28.0389864 C7.9574269,30.2070955 9.71500975,31.9646784 11.8831189,31.9646784 L28.0388304,31.9646784 C30.2069396,31.9646784 31.9645224,30.2070955 31.9645224,28.0389864 L31.9645224,11.8831969 C31.9646004,9.71508772 30.2070175,7.95758285 28.0389084,7.95758285 L28.0389084,7.95758285 Z M19.9610916,25.7918908 C16.7408967,25.7918908 14.1302924,23.1813645 14.1302924,19.9610916 C14.1302924,16.7408187 16.7408187,14.1302924 19.9610916,14.1302924 C23.1813645,14.1302924 25.7918908,16.7408187 25.7918908,19.9610916 C25.7918908,23.1813645 23.1812865,25.7918908 19.9610916,25.7918908 L19.9610916,25.7918908 Z" id="Shape" stroke="#FFFFFF" fill="#58595A"></path>
                <g id="Group" transform="translate(6.783626, 6.783626)">
                    <path d="M21.2552827,26.3134503 L5.09964912,26.3134503 C2.3105653,26.3134503 0.0415594542,24.0444444 0.0415594542,21.2553606 L0.0415594542,5.09957115 C0.0415594542,2.3105653 2.3105653,0.0414814815 5.09964912,0.0414814815 L21.2552827,0.0414814815 C24.0443665,0.0414814815 26.3133723,2.31048733 26.3133723,5.09957115 L26.3133723,21.2552827 C26.3133723,24.0442885 24.0442885,26.3134503 21.2552827,26.3134503 L21.2552827,26.3134503 Z M5.09964912,2.30635478 C3.55937622,2.30635478 2.30635478,3.55937622 2.30635478,5.09964912 L2.30635478,21.2553606 C2.30635478,22.7955556 3.55937622,24.048655 5.09964912,24.048655 L21.2552827,24.048655 C22.7955556,24.048655 24.048577,22.7956335 24.048577,21.2553606 L24.048577,5.09957115 C24.048577,3.55937622 22.7955556,2.3062768 21.2552827,2.3062768 L5.09964912,2.3062768 L5.09964912,2.30635478 L5.09964912,2.30635478 Z M13.1774659,20.1406628 C9.33793372,20.1406628 6.21426901,17.0169981 6.21426901,13.1774659 C6.21426901,9.33793372 9.33793372,6.21426901 13.1774659,6.21426901 C17.0169981,6.21426901 20.1406628,9.33793372 20.1406628,13.1774659 C20.1406628,17.0169981 17.0169981,20.1406628 13.1774659,20.1406628 L13.1774659,20.1406628 Z M13.1774659,8.47906433 C10.5867446,8.47906433 8.4791423,10.5866667 8.4791423,13.1774659 C8.4791423,15.7682651 10.5867446,17.8758674 13.1774659,17.8758674 C15.7681871,17.8758674 17.8758674,15.7682651 17.8758674,13.1774659 C17.8758674,10.5866667 15.7680312,8.47906433 13.1774659,8.47906433 L13.1774659,8.47906433 Z" id="Shape" fill="#FFE3DB"></path>
                    <ellipse id="Oval" fill="#FFFFFF" cx="20.2265887" cy="6.04319688" rx="1.59446394" ry="1.59446394"></ellipse>
                </g>
            </g>
        </g>
    </g>
</svg>