<?xml version="1.0" encoding="UTF-8"?>
<svg width="90px" height="40px" viewBox="0 0 90 40" version="1.1" xmlns="http://www.w3.org/2000/svg" xmlns:xlink="http://www.w3.org/1999/xlink">
    <!-- Generator: Sketch 42 (36781) - http://www.bohemiancoding.com/sketch -->
    <title>Artboard Copy</title>
    <desc>Created with Sketch.</desc>
    <defs></defs>
    <g id="Page-1" stroke="none" stroke-width="1" fill="none" fill-rule="evenodd">
        <g id="Artboard-Copy" fill-rule="nonzero" fill="#000000">
            <g id="004-youtube-logotype">
                <g id="Group">
                    <polygon id="Shape" points="10.48 21.4212245 12.0616327 21.4212245 12.0616327 29.9816327 13.5579592 29.9816327 13.5579592 21.4212245 15.1689796 21.4212245 15.1689796 20.0191837 10.48 20.0191837"></polygon>
                    <path d="M23.1322449,22.4677551 C22.637551,22.4677551 22.1759184,22.7379592 21.7420408,23.2726531 L21.7420408,20.0187755 L20.3971429,20.0187755 L20.3971429,29.9816327 L21.7420408,29.9816327 L21.7420408,29.262449 C22.1922449,29.8179592 22.6534694,30.0840816 23.1322449,30.0840816 C23.6673469,30.0840816 24.0273469,29.802449 24.2069388,29.2497959 C24.2971429,28.935102 24.3432653,28.4408163 24.3432653,27.7538776 L24.3432653,24.7979592 C24.3432653,24.095102 24.2971429,23.6044898 24.2069388,23.3061224 C24.0277551,22.7493878 23.6669388,22.4677551 23.1322449,22.4677551 Z M22.997551,27.8591837 C22.997551,28.5302041 22.8008163,28.8608163 22.4122449,28.8608163 C22.1914286,28.8608163 21.9665306,28.755102 21.7416327,28.5297959 L21.7416327,24.0057143 C21.9665306,23.7832653 22.1914286,23.6779592 22.4122449,23.6779592 C22.8004082,23.6779592 22.997551,24.0216327 22.997551,24.6910204 L22.997551,27.8591837 Z" id="Shape"></path>
                    <path d="M17.8873469,28.2314286 C17.5889796,28.6530612 17.3069388,28.8608163 17.0367347,28.8608163 C16.8571429,28.8608163 16.7546939,28.755102 16.7220408,28.5461224 C16.7097959,28.5028571 16.7097959,28.3387755 16.7097959,28.0236735 L16.7097959,22.5583673 L15.3644898,22.5583673 L15.3644898,28.4273469 C15.3644898,28.9518367 15.4097959,29.3061224 15.4832653,29.5314286 C15.6183673,29.9077551 15.9171429,30.0840816 16.3497959,30.0840816 C16.844898,30.0840816 17.3526531,29.7853061 17.8873469,29.1722449 L17.8873469,29.9820408 L19.2334694,29.9820408 L19.2334694,22.5583673 L17.8873469,22.5583673 L17.8873469,28.2314286 L17.8873469,28.2314286 Z" id="Shape"></path>
                    <path d="M19.0420408,15.7004082 C19.48,15.7004082 19.6902041,15.3530612 19.6902041,14.6591837 L19.6902041,11.5036735 C19.6902041,10.8093878 19.48,10.4636735 19.0420408,10.4636735 C18.6036735,10.4636735 18.3930612,10.8097959 18.3930612,11.5036735 L18.3930612,14.6591837 C18.3930612,15.3534694 18.6036735,15.7004082 19.0420408,15.7004082 Z" id="Shape"></path>
                    <path d="M19.9489796,0 C8.93142857,0 0,8.93142857 0,19.9489796 C0,30.9665306 8.93142857,39.8979592 19.9489796,39.8979592 C30.9665306,39.8979592 39.8979592,30.9665306 39.8979592,19.9489796 C39.8979592,8.93142857 30.9665306,0 19.9489796,0 Z M22.1677551,9.33061224 L23.5232653,9.33061224 L23.5232653,14.8538776 C23.5232653,15.1726531 23.5232653,15.3379592 23.5395918,15.382449 C23.5693878,15.5930612 23.6763265,15.7008163 23.8583673,15.7008163 C24.1302041,15.7008163 24.4155102,15.4902041 24.7171429,15.0644898 L24.7171429,9.33061224 L26.0763265,9.33061224 L26.0763265,16.8322449 L24.7171429,16.8322449 L24.7171429,16.0142857 C24.1759184,16.6346939 23.66,16.9355102 23.1640816,16.9355102 C22.7265306,16.9355102 22.4244898,16.7579592 22.2881633,16.3783673 C22.2130612,16.1510204 22.1677551,15.7922449 22.1677551,15.2628571 L22.1677551,9.33061224 L22.1677551,9.33061224 Z M17.0338776,11.7767347 C17.0338776,10.9746939 17.1702041,10.3885714 17.4591837,10.0093878 C17.835102,9.49632653 18.3644898,9.24 19.0420408,9.24 C19.7228571,9.24 20.2518367,9.49632653 20.6277551,10.0093878 C20.9126531,10.3881633 21.0489796,10.9746939 21.0489796,11.7767347 L21.0489796,14.4036735 C21.0489796,15.2012245 20.9126531,15.7926531 20.6277551,16.1677551 C20.2518367,16.6795918 19.7228571,16.9355102 19.0420408,16.9355102 C18.3644898,16.9355102 17.835102,16.6795918 17.4591837,16.1677551 C17.1702041,15.7926531 17.0338776,15.2008163 17.0338776,14.4036735 L17.0338776,11.7767347 Z M13.3987755,6.76571429 L14.4689796,10.7187755 L15.4971429,6.76571429 L17.0216327,6.76571429 L15.2081633,12.7555102 L15.2081633,16.8326531 L13.7012245,16.8326531 L13.7012245,12.7555102 C13.5644898,12.0330612 13.2628571,10.9746939 12.7791837,9.57061224 C12.4616327,8.63632653 12.1306122,7.69918367 11.8130612,6.76571429 L13.3987755,6.76571429 Z M30.6881633,30.6371429 C30.4155102,31.8204082 29.4477551,32.6938776 28.282449,32.8240816 C25.5220408,33.1322449 22.7297959,33.1338776 19.9477551,33.1322449 C17.1669388,33.1338776 14.3730612,33.1322449 11.6134694,32.8240816 C10.4481633,32.6938776 9.48,31.8208163 9.20816327,30.6371429 C8.82,28.9518367 8.82,27.1114286 8.82,25.3759184 C8.82,23.6404082 8.82489796,21.8004082 9.21265306,20.1146939 C9.48489796,18.9310204 10.4522449,18.057551 11.617551,17.9277551 C14.377551,17.6195918 17.1710204,17.6179592 19.9526531,17.6195918 C22.7334694,17.6179592 25.5269388,17.6195918 28.2869388,17.9277551 C29.4522449,18.0579592 30.4204082,18.9310204 30.6934694,20.1146939 C31.0804082,21.8004082 31.0779592,23.6404082 31.0779592,25.3759184 C31.0779592,27.1114286 31.0763265,28.9518367 30.6881633,30.6371429 Z" id="Shape"></path>
                    <path d="M27.4163265,22.4677551 C26.7281633,22.4677551 26.1938776,22.7204082 25.8053061,23.2285714 C25.52,23.6040816 25.3897959,24.1844898 25.3897959,24.977551 L25.3897959,27.5779592 C25.3897959,28.3669388 25.5355102,28.9514286 25.8220408,29.3232653 C26.2102041,29.8302041 26.7461224,30.0836735 27.4497959,30.0836735 C28.1522449,30.0836735 28.7036735,29.8179592 29.0759184,29.2787755 C29.2391837,29.0404082 29.3453061,28.7706122 29.3902041,28.4726531 C29.4028571,28.3379592 29.4187755,28.0395918 29.4187755,27.6057143 L29.4187755,27.4102041 L28.0469388,27.4102041 C28.0469388,27.9489796 28.0293878,28.2481633 28.017551,28.3212245 C27.9408163,28.6808163 27.7473469,28.8604082 27.4163265,28.8604082 C26.9542857,28.8604082 26.7281633,28.517551 26.7281633,27.8310204 L26.7281633,26.5142857 L29.4187755,26.5142857 L29.4187755,24.9767347 C29.4187755,24.1836735 29.2844898,23.6032653 29.002449,23.2277551 C28.6265306,22.7208163 28.0914286,22.4677551 27.4163265,22.4677551 Z M28.0742857,25.395102 L26.7289796,25.395102 L26.7289796,24.7081633 C26.7289796,24.0216327 26.9546939,23.6783673 27.4040816,23.6783673 C27.8489796,23.6783673 28.0742857,24.0220408 28.0742857,24.7081633 L28.0742857,25.395102 L28.0742857,25.395102 Z" id="Shape"></path>
                </g>
            </g>
            <g id="001-twitter-logo-button" transform="translate(50.000000, 0.000000)">
                <path d="M19.8608,0 C8.9096,0 0,8.9096 0,19.8608 C0,30.8112 8.9096,39.7216 19.8608,39.7216 C30.8112,39.7216 39.7216,30.8112 39.7216,19.8608 C39.7216,8.9096 30.8128,0 19.8608,0 Z M28.7208,15.3152 C28.7296,15.512 28.7344,15.7104 28.7344,15.9088 C28.7344,21.9496 24.1376,28.9128 15.7272,28.9128 C13.1456,28.9128 10.7424,28.1584 8.72,26.8608 C9.0776,26.9032 9.4416,26.9248 9.8104,26.9248 C11.9528,26.9248 13.9232,26.1936 15.488,24.968 C13.488,24.9312 11.7992,23.6096 11.2176,21.7928 C11.496,21.8456 11.7832,21.8752 12.0768,21.8752 C12.4936,21.8752 12.8984,21.8208 13.2816,21.716 C11.1904,21.2968 9.6152,19.4496 9.6152,17.2336 C9.6152,17.2144 9.6152,17.1944 9.616,17.176 C10.232,17.5176 10.9368,17.724 11.6856,17.7472 C10.46,16.9288 9.6528,15.5288 9.6528,13.9432 C9.6528,13.1048 9.8776,12.3192 10.2712,11.644 C12.5248,14.4104 15.8944,16.2296 19.6928,16.4216 C19.6144,16.0864 19.5752,15.7384 19.5752,15.3792 C19.5752,12.8552 21.6216,10.808 24.1456,10.808 C25.4608,10.808 26.6472,11.3632 27.4824,12.2512 C28.5248,12.0464 29.5008,11.6672 30.3864,11.1416 C30.0424,12.2096 29.32,13.1048 28.3736,13.6712 C29.2992,13.5608 30.1824,13.316 30.9992,12.952 C30.3896,13.8672 29.6144,14.6728 28.7208,15.3152 Z" id="Shape"></path>
            </g>
        </g>
    </g>
</svg>