<svg width="940" height="144" viewBox="0 0 940 144" xmlns="http://www.w3.org/2000/svg"><title>new-static-folder</title><g fill="none" fill-rule="evenodd"><path fill="#FFF" opacity=".4" d="M0 0h940v144H0z"/><path fill="#FC0" d="M36.5 41h20v12h-20z"/><path d="M36.5 39h19.008c.537 0 .992.448.992 1v1h-20v-2zm.997-2h6.006c.544 0 .997.448.997 1v1h-8v-1c0-.556.446-1 .997-1z" fill="#E4A800"/><path fill="#FC0" d="M10 17h20v12H10z"/><path d="M10 15h19.008c.537 0 .992.448.992 1v1H10v-2zm.997-2h6.006c.544 0 .997.448.997 1v1h-8v-1c0-.556.446-1 .997-1z" fill="#E4A800"/><text font-family="YandexSansText-Regular, Yandex Sans Text" font-size="16" fill="#000" transform="translate(10 13)"><tspan x="26.864" y="15">static</tspan></text><text font-family="YandexSansText-Regular, Yandex Sans Text" font-size="16" fill="#000" transform="translate(10 13)"><tspan x="56" y="39">images</tspan></text><text font-family="YandexSansText-Regular, Yandex Sans Text" font-size="16" fill="#000" transform="translate(10 13)"><tspan x="81.5" y="63">favicon.ico</tspan></text><g opacity=".598"><path fill="#FC0" d="M20 116H10v20h16v-14z"/><path fill="#E4A800" d="M20 116v6h6z"/></g><text font-family="YandexSansText-Regular, Yandex Sans Text" font-size="16" fill="#000" transform="translate(10 89)"><tspan x="26.5" y="15">index.min.css</tspan></text><g><g opacity=".598"><path fill="#FC0" d="M20 88H10v20h16V94z"/><path fill="#E4A800" d="M20 88v6h6z"/></g><text font-family="YandexSansText-Regular, Yandex Sans Text" font-size="16" fill="#000" transform="translate(10 88)"><tspan x="26.5" y="44">index.min.js</tspan></text></g><g><path fill="#FC0" opacity=".602" d="M76 61H66v20h16V67z"/><path fill="#E4A800" opacity=".597" d="M76 61v6h6z"/></g></g></svg>