<svg width="940" height="400" viewBox="0 0 940 400" xmlns="http://www.w3.org/2000/svg"><title>server-changes</title><g fill="none" fill-rule="evenodd"><path fill="#FFF" opacity=".4" d="M0 0h940v400H0z"/><path fill="#FC0" opacity=".602" d="M47 359H37v20h16v-14z"/><path fill="#E4A800" opacity=".597" d="M47 359v6h6z"/><path d="M49.5 379a6.5 6.5 0 1 1 0-13 6.5 6.5 0 0 1 0 13z" fill-opacity=".5" fill="#66AB3C"/><path d="M49.5 378.768a6.268 6.268 0 1 0 0-12.536 6.268 6.268 0 0 0 0 12.536zm0 .232a6.5 6.5 0 1 1 0-13 6.5 6.5 0 0 1 0 13z" fill="#66AB3C"/><path d="M49.03 372.03v-4.694a.47.47 0 1 1 .94 0v4.695h4.694a.47.47 0 1 1 0 .938h-4.695v4.695a.47.47 0 1 1-.938 0v-4.695h-4.695a.47.47 0 1 1 0-.938h4.695z" fill="#666"/><text font-family="YandexSansText-Regular, Yandex Sans Text" font-size="16" fill="#000" transform="translate(37 359)"><tspan x="29" y="18">routes.js</tspan></text><g opacity=".6"><path fill="#FC0" d="M46.5 331h-10v20h16v-14z"/><path fill="#E4A800" d="M46.5 331v6h6z"/></g><path d="M52.43 342.965l-.96-.96-6.84 6.839v.96h.961l6.84-6.839zm-6.175 7.773a.77.77 0 0 1-.48.197h-1.991a.281.281 0 0 1-.284-.284v-1.99c0-.158.09-.374.197-.481l7.565-7.566a.282.282 0 0 1 .398.004l2.157 2.157c.11.11.11.29.004.398l-7.566 7.565zm9.468-9.468l-.655.655a.284.284 0 0 1-.399-.003l-2.157-2.156a.283.283 0 0 1-.002-.399l.654-.655c.296-.278.58-.284.853 0l1.706 1.706c.287.284.278.578 0 .852z" fill="#666"/><text font-family="YandexSansText-Regular, Yandex Sans Text" font-size="16" fill="#000" transform="translate(36.5 331)"><tspan x="29.5" y="19">index.js</tspan></text><path fill="#FC0" opacity=".602" d="M47 275H37v20h16v-14z"/><path fill="#E4A800" opacity=".597" d="M47 275v6h6z"/><path d="M49.5 295a6.5 6.5 0 1 1 0-13 6.5 6.5 0 0 1 0 13z" fill-opacity=".5" fill="#66AB3C"/><path d="M49.5 294.768a6.268 6.268 0 1 0 0-12.536 6.268 6.268 0 0 0 0 12.536zm0 .232a6.5 6.5 0 1 1 0-13 6.5 6.5 0 0 1 0 13z" fill="#66AB3C"/><path d="M49.03 288.03v-4.694a.47.47 0 1 1 .94 0v4.695h4.694a.47.47 0 1 1 0 .938h-4.695v4.695a.47.47 0 1 1-.938 0v-4.695h-4.695a.47.47 0 1 1 0-.938h4.695z" fill="#666"/><text font-family="YandexSansText-Regular, Yandex Sans Text" font-size="16" fill="#000" transform="translate(37 275)"><tspan x="29" y="18">auth.js</tspan></text><path fill="#FC0" opacity=".602" d="M47 303H37v20h16v-14z"/><path fill="#E4A800" opacity=".597" d="M47 303v6h6z"/><path d="M49.5 323a6.5 6.5 0 1 1 0-13 6.5 6.5 0 0 1 0 13z" fill-opacity=".5" fill="#66AB3C"/><path d="M49.5 322.768a6.268 6.268 0 1 0 0-12.536 6.268 6.268 0 0 0 0 12.536zm0 .232a6.5 6.5 0 1 1 0-13 6.5 6.5 0 0 1 0 13z" fill="#66AB3C"/><path d="M49.03 316.03v-4.694a.47.47 0 1 1 .94 0v4.695h4.694a.47.47 0 1 1 0 .938h-4.695v4.695a.47.47 0 1 1-.938 0v-4.695h-4.695a.47.47 0 1 1 0-.938h4.695z" fill="#666"/><text font-family="YandexSansText-Regular, Yandex Sans Text" font-size="16" fill="#000" transform="translate(37 303)"><tspan x="29" y="18">config.json</tspan></text><path fill="#FC0" opacity=".602" d="M47 247H37v20h16v-14z"/><path fill="#E4A800" opacity=".597" d="M47 247v6h6z"/><path d="M49.5 267a6.5 6.5 0 1 1 0-13 6.5 6.5 0 0 1 0 13z" fill-opacity=".5" fill="#66AB3C"/><path d="M49.5 266.768a6.268 6.268 0 1 0 0-12.536 6.268 6.268 0 0 0 0 12.536zm0 .232a6.5 6.5 0 1 1 0-13 6.5 6.5 0 0 1 0 13z" fill="#66AB3C"/><path d="M49.03 260.03v-4.694a.47.47 0 1 1 .94 0v4.695h4.694a.47.47 0 1 1 0 .938h-4.695v4.695a.47.47 0 1 1-.938 0v-4.695h-4.695a.47.47 0 1 1 0-.938h4.695z" fill="#666"/><text font-family="YandexSansText-Regular, Yandex Sans Text" font-size="16" fill="#000" transform="translate(37 247)"><tspan x="29" y="18">app.js</tspan></text><g><path fill="#FC0" opacity=".602" d="M76 219H66v20h16v-14z"/><path fill="#E4A800" opacity=".597" d="M76 219v6h6z"/><path d="M78.5 239a6.5 6.5 0 1 1 0-13 6.5 6.5 0 0 1 0 13z" fill-opacity=".5" fill="#66AB3C"/><path d="M78.5 238.768a6.268 6.268 0 1 0 0-12.536 6.268 6.268 0 0 0 0 12.536zm0 .232a6.5 6.5 0 1 1 0-13 6.5 6.5 0 0 1 0 13z" fill="#66AB3C"/><path d="M78.03 232.03v-4.694a.47.47 0 1 1 .94 0v4.695h4.694a.47.47 0 1 1 0 .938h-4.695v4.695a.47.47 0 1 1-.938 0v-4.695h-4.695a.47.47 0 1 1 0-.938h4.695z" fill="#666"/><text font-family="YandexSansText-Regular, Yandex Sans Text" font-size="16" fill="#000" transform="translate(66 219)"><tspan x="25.5" y="18">index.js</tspan></text></g><g><path fill="#FC0" d="M37 199h20v12H37z"/><path d="M37 197h19.008c.537 0 .992.448.992 1v1H37v-2zm.997-2h6.006c.544 0 .997.448.997 1v1h-8v-1c0-.556.446-1 .997-1z" fill="#E4A800"/><path d="M53.5 211a6.5 6.5 0 1 1 0-13 6.5 6.5 0 0 1 0 13z" fill-opacity=".5" fill="#66AB3C"/><path d="M53.5 210.768a6.268 6.268 0 1 0 0-12.536 6.268 6.268 0 0 0 0 12.536zm0 .232a6.5 6.5 0 1 1 0-13 6.5 6.5 0 0 1 0 13z" fill="#66AB3C"/><path d="M53.03 204.03v-4.694a.47.47 0 1 1 .94 0v4.695h4.694a.47.47 0 1 1 0 .938h-4.695v4.695a.47.47 0 1 1-.938 0v-4.695h-4.695a.47.47 0 1 1 0-.938h4.695z" fill="#666"/><text font-family="YandexSansText-Regular, Yandex Sans Text" font-size="16" fill="#000" transform="translate(37 192)"><tspan x="29" y="15">middleware</tspan></text></g><g><path fill="#FC0" opacity=".602" d="M76 162H66v20h16v-14z"/><path fill="#E4A800" opacity=".597" d="M76 162v6h6z"/><path d="M78.5 182a6.5 6.5 0 1 1 0-13 6.5 6.5 0 0 1 0 13z" fill-opacity=".5" fill="#66AB3C"/><path d="M78.5 181.768a6.268 6.268 0 1 0 0-12.536 6.268 6.268 0 0 0 0 12.536zm0 .232a6.5 6.5 0 1 1 0-13 6.5 6.5 0 0 1 0 13z" fill="#66AB3C"/><path d="M78.03 175.03v-4.694a.47.47 0 1 1 .94 0v4.695h4.694a.47.47 0 1 1 0 .938h-4.695v4.695a.47.47 0 1 1-.938 0v-4.695h-4.695a.47.47 0 1 1 0-.938h4.695z" fill="#666"/><text font-family="YandexSansText-Regular, Yandex Sans Text" font-size="16" fill="#000" transform="translate(66 162)"><tspan x="25.5" y="18">youtube.js</tspan></text></g><g><path fill="#FC0" opacity=".602" d="M76 134H66v20h16v-14z"/><path fill="#E4A800" opacity=".597" d="M76 134v6h6z"/><path d="M78.5 154a6.5 6.5 0 1 1 0-13 6.5 6.5 0 0 1 0 13z" fill-opacity=".5" fill="#66AB3C"/><path d="M78.5 153.768a6.268 6.268 0 1 0 0-12.536 6.268 6.268 0 0 0 0 12.536zm0 .232a6.5 6.5 0 1 1 0-13 6.5 6.5 0 0 1 0 13z" fill="#66AB3C"/><path d="M78.03 147.03v-4.694a.47.47 0 1 1 .94 0v4.695h4.694a.47.47 0 1 1 0 .938h-4.695v4.695a.47.47 0 1 1-.938 0v-4.695h-4.695a.47.47 0 1 1 0-.938h4.695z" fill="#666"/><text font-family="YandexSansText-Regular, Yandex Sans Text" font-size="16" fill="#000" transform="translate(66 134)"><tspan x="25.5" y="18">twitter.js</tspan></text></g><g><path fill="#FC0" opacity=".602" d="M76 106H66v20h16v-14z"/><path fill="#E4A800" opacity=".597" d="M76 106v6h6z"/><path d="M78.5 126a6.5 6.5 0 1 1 0-13 6.5 6.5 0 0 1 0 13z" fill-opacity=".5" fill="#66AB3C"/><path d="M78.5 125.768a6.268 6.268 0 1 0 0-12.536 6.268 6.268 0 0 0 0 12.536zm0 .232a6.5 6.5 0 1 1 0-13 6.5 6.5 0 0 1 0 13z" fill="#66AB3C"/><path d="M78.03 119.03v-4.694a.47.47 0 1 1 .94 0v4.695h4.694a.47.47 0 1 1 0 .938h-4.695v4.695a.47.47 0 1 1-.938 0v-4.695h-4.695a.47.47 0 1 1 0-.938h4.695z" fill="#666"/><text font-family="YandexSansText-Regular, Yandex Sans Text" font-size="16" fill="#000" transform="translate(66 106)"><tspan x="25.5" y="18">index.js</tspan></text></g><g><path fill="#FC0" d="M36.5 86h20v12h-20z"/><path d="M36.5 84h19.008c.537 0 .992.448.992 1v1h-20v-2zm.997-2h6.006c.544 0 .997.448.997 1v1h-8v-1c0-.556.446-1 .997-1z" fill="#E4A800"/><path d="M53 98a6.5 6.5 0 1 1 0-13 6.5 6.5 0 0 1 0 13z" fill-opacity=".5" fill="#66AB3C"/><path d="M53 97.768a6.268 6.268 0 1 0 0-12.536 6.268 6.268 0 0 0 0 12.536zM53 98a6.5 6.5 0 1 1 0-13 6.5 6.5 0 0 1 0 13z" fill="#66AB3C"/><path d="M52.53 91.03v-4.694a.47.47 0 1 1 .94 0v4.695h4.694a.47.47 0 1 1 0 .938h-4.695v4.695a.47.47 0 1 1-.938 0v-4.695h-4.695a.47.47 0 1 1 0-.938h4.695z" fill="#666"/><text font-family="YandexSansText-Regular, Yandex Sans Text" font-size="16" fill="#000" transform="translate(36.5 79)"><tspan x="29.5" y="15">helpers</tspan></text></g><g><path fill="#FC0" opacity=".602" d="M76 54H66v20h16V60z"/><path fill="#E4A800" opacity=".597" d="M76 54v6h6z"/><path d="M78.5 74a6.5 6.5 0 1 1 0-13 6.5 6.5 0 0 1 0 13z" fill-opacity=".5" fill="#66AB3C"/><path d="M78.5 73.768a6.268 6.268 0 1 0 0-12.536 6.268 6.268 0 0 0 0 12.536zm0 .232a6.5 6.5 0 1 1 0-13 6.5 6.5 0 0 1 0 13z" fill="#66AB3C"/><path d="M78.03 67.03v-4.694a.47.47 0 1 1 .94 0v4.695h4.694a.47.47 0 1 1 0 .938h-4.695v4.695a.47.47 0 1 1-.938 0v-4.695h-4.695a.47.47 0 1 1 0-.938h4.695z" fill="#666"/><text font-family="YandexSansText-Regular, Yandex Sans Text" font-size="16" fill="#000" transform="translate(66 54)"><tspan x="25.5" y="18">index.js</tspan></text></g><g><path fill="#FC0" d="M36.5 34h20v12h-20z"/><path d="M36.5 32h19.008c.537 0 .992.448.992 1v1h-20v-2zm.997-2h6.006c.544 0 .997.448.997 1v1h-8v-1c0-.556.446-1 .997-1z" fill="#E4A800"/><path d="M53 46a6.5 6.5 0 1 1 0-13 6.5 6.5 0 0 1 0 13z" fill-opacity=".5" fill="#66AB3C"/><path d="M53 45.768a6.268 6.268 0 1 0 0-12.536 6.268 6.268 0 0 0 0 12.536zM53 46a6.5 6.5 0 1 1 0-13 6.5 6.5 0 0 1 0 13z" fill="#66AB3C"/><path d="M52.53 39.03v-4.694a.47.47 0 1 1 .94 0v4.695h4.694a.47.47 0 1 1 0 .938h-4.695v4.695a.47.47 0 1 1-.938 0v-4.695h-4.695a.47.47 0 1 1 0-.938h4.695z" fill="#666"/><text font-family="YandexSansText-Regular, Yandex Sans Text" font-size="16" fill="#000" transform="translate(36.5 30)"><tspan x="29.5" y="15">controllers</tspan></text></g><g><path fill="#FC0" d="M10 10h20v12H10z"/><path d="M10 8h19.008c.537 0 .992.448.992 1v1H10V8zm.997-2h6.006c.544 0 .997.448.997 1v1h-8V7c0-.556.446-1 .997-1z" fill="#E4A800"/><text font-family="YandexSansText-Regular, Yandex Sans Text" font-size="16" fill="#000" transform="translate(10 6)"><tspan x="26.5" y="15">server</tspan></text></g></g></svg>