<svg width="940" height="430" viewBox="0 0 940 430" xmlns="http://www.w3.org/2000/svg"><title>static-changes</title><g fill="none" fill-rule="evenodd"><path fill="#FFF" opacity=".4" d="M0 0h940v430H0z"/><g opacity=".6"><path fill="#FC0" d="M20 394H10v20h16v-14z"/><path fill="#E4A800" d="M20 394v6h6z"/></g><path d="M25.93 405.965l-.96-.96-6.84 6.839v.96h.961l6.84-6.839zm-6.175 7.773a.77.77 0 0 1-.48.197h-1.991a.281.281 0 0 1-.284-.284v-1.99c0-.158.09-.374.197-.481l7.565-7.566a.282.282 0 0 1 .398.004l2.157 2.157c.11.11.11.29.004.398l-7.566 7.565zm9.468-9.468l-.655.655a.284.284 0 0 1-.399-.003l-2.157-2.156a.283.283 0 0 1-.002-.399l.654-.655c.296-.278.58-.284.853 0l1.706 1.706c.287.284.278.578 0 .852z" fill="#666"/><text font-family="YandexSansText-Regular, Yandex Sans Text" font-size="16" fill="#000" transform="translate(10 394)"><tspan x="26.5" y="19">.gitignore</tspan></text><path fill="#FC0" d="M10 318h20v12H10z"/><path d="M10 316h19.008c.537 0 .992.448.992 1v1H10v-2zm.997-2h6.006c.544 0 .997.448.997 1v1h-8v-1c0-.556.446-1 .997-1z" fill="#E4A800"/><text font-family="YandexSansText-Regular, Yandex Sans Text" font-size="16" fill="#000" transform="translate(10 314)"><tspan x="26.5" y="15">server</tspan></text><g opacity=".6"><path fill="#FC0" d="M46.5 338h-10v20h16v-14z"/><path fill="#E4A800" d="M46.5 338v6h6z"/></g><path d="M52.43 349.965l-.96-.96-6.84 6.839v.96h.961l6.84-6.839zm-6.175 7.773a.77.77 0 0 1-.48.197h-1.991a.281.281 0 0 1-.284-.284v-1.99c0-.158.09-.374.197-.481l7.565-7.566a.282.282 0 0 1 .398.004l2.157 2.157c.11.11.11.29.004.398l-7.566 7.565zm9.468-9.468l-.655.655a.284.284 0 0 1-.399-.003l-2.157-2.156a.283.283 0 0 1-.002-.399l.654-.655c.296-.278.58-.284.853 0l1.706 1.706c.287.284.278.578 0 .852z" fill="#666"/><text font-family="YandexSansText-Regular, Yandex Sans Text" font-size="16" fill="#000" transform="translate(36.5 338)"><tspan x="29.5" y="19">index.js</tspan></text><text font-family="YandexSansText-Regular, Yandex Sans Text" font-size="16" fill="#000" transform="translate(10 314)"><tspan x="56" y="71">rebuild.js</tspan></text><g><g opacity=".6"><path fill="#FC0" d="M46.5 366h-10v20h16v-14z"/><path fill="#E4A800" d="M46.5 366v6h6z"/></g><path d="M52.43 377.965l-.96-.96-6.84 6.839v.96h.961l6.84-6.839zm-6.175 7.773a.77.77 0 0 1-.48.197h-1.991a.281.281 0 0 1-.284-.284v-1.99c0-.158.09-.374.197-.481l7.565-7.566a.282.282 0 0 1 .398.004l2.157 2.157c.11.11.11.29.004.398l-7.566 7.565zm9.468-9.468l-.655.655a.284.284 0 0 1-.399-.003l-2.157-2.156a.283.283 0 0 1-.002-.399l.654-.655c.296-.278.58-.284.853 0l1.706 1.706c.287.284.278.578 0 .852z" fill="#666"/></g><g><path fill="#FC0" d="M10 242h20v12H10z"/><path d="M10 240h19.008c.537 0 .992.448.992 1v1H10v-2zm.997-2h6.006c.544 0 .997.448.997 1v1h-8v-1c0-.556.446-1 .997-1z" fill="#E4A800"/><text font-family="YandexSansText-Regular, Yandex Sans Text" font-size="16" fill="#000" transform="translate(10 238)"><tspan x="26.5" y="15">common.blocks</tspan></text><path fill="#FC0" d="M36.5 266h20v12h-20z"/><path d="M36.5 264h19.008c.537 0 .992.448.992 1v1h-20v-2zm.997-2h6.006c.544 0 .997.448.997 1v1h-8v-1c0-.556.446-1 .997-1z" fill="#E4A800"/><text font-family="YandexSansText-Regular, Yandex Sans Text" font-size="16" fill="#000" transform="translate(10 238)"><tspan x="56" y="39">root</tspan></text><text font-family="YandexSansText-Regular, Yandex Sans Text" font-size="16" fill="#000" transform="translate(10 238)"><tspan x="81.5" y="67">root.bemtree.js</tspan></text><g><g opacity=".6"><path fill="#FC0" d="M76 286H66v20h16v-14z"/><path fill="#E4A800" d="M76 286v6h6z"/></g><path d="M81.93 297.965l-.96-.96-6.84 6.839v.96h.961l6.84-6.839zm-6.175 7.773a.77.77 0 0 1-.48.197h-1.991a.281.281 0 0 1-.284-.284v-1.99c0-.158.09-.374.197-.481l7.565-7.566a.282.282 0 0 1 .398.004l2.157 2.157c.11.11.11.29.004.398l-7.566 7.565zm9.468-9.468l-.655.655a.284.284 0 0 1-.399-.003l-2.157-2.156a.283.283 0 0 1-.002-.399l.654-.655c.296-.278.58-.284.853 0l1.706 1.706c.287.284.278.578 0 .852z" fill="#666"/></g></g><g><path fill="#FC0" d="M36.5 34h20v12h-20z"/><path d="M36.5 32h19.008c.537 0 .992.448.992 1v1h-20v-2zm.997-2h6.006c.544 0 .997.448.997 1v1h-8v-1c0-.556.446-1 .997-1z" fill="#E4A800"/><path d="M53 46a6.5 6.5 0 1 1 0-13 6.5 6.5 0 0 1 0 13z" fill-opacity=".5" fill="#66AB3C"/><path d="M53 45.768a6.268 6.268 0 1 0 0-12.536 6.268 6.268 0 0 0 0 12.536zM53 46a6.5 6.5 0 1 1 0-13 6.5 6.5 0 0 1 0 13z" fill="#66AB3C"/><path d="M52.53 39.03v-4.694a.47.47 0 1 1 .94 0v4.695h4.694a.47.47 0 1 1 0 .938h-4.695v4.695a.47.47 0 1 1-.938 0v-4.695h-4.695a.47.47 0 1 1 0-.938h4.695z" fill="#666"/><path fill="#FC0" d="M36.5 58h20v12h-20z"/><path d="M36.5 56h19.008c.537 0 .992.448.992 1v1h-20v-2zm.997-2h6.006c.544 0 .997.448.997 1v1h-8v-1c0-.556.446-1 .997-1z" fill="#E4A800"/><path d="M53 70a6.5 6.5 0 1 1 0-13 6.5 6.5 0 0 1 0 13z" fill-opacity=".5" fill="#66AB3C"/><path d="M53 69.768a6.268 6.268 0 1 0 0-12.536 6.268 6.268 0 0 0 0 12.536zM53 70a6.5 6.5 0 1 1 0-13 6.5 6.5 0 0 1 0 13z" fill="#66AB3C"/><path d="M52.53 63.03v-4.694a.47.47 0 1 1 .94 0v4.695h4.694a.47.47 0 1 1 0 .938h-4.695v4.695a.47.47 0 1 1-.938 0v-4.695h-4.695a.47.47 0 1 1 0-.938h4.695z" fill="#666"/><path fill="#FC0" d="M37 110h20v12H37z"/><path d="M37 108h19.008c.537 0 .992.448.992 1v1H37v-2zm.997-2h6.006c.544 0 .997.448.997 1v1h-8v-1c0-.556.446-1 .997-1z" fill="#E4A800"/><path d="M53.5 122a6.5 6.5 0 1 1 0-13 6.5 6.5 0 0 1 0 13z" fill-opacity=".5" fill="#66AB3C"/><path d="M53.5 121.768a6.268 6.268 0 1 0 0-12.536 6.268 6.268 0 0 0 0 12.536zm0 .232a6.5 6.5 0 1 1 0-13 6.5 6.5 0 0 1 0 13z" fill="#66AB3C"/><path d="M53.03 115.03v-4.694a.47.47 0 1 1 .94 0v4.695h4.694a.47.47 0 1 1 0 .938h-4.695v4.695a.47.47 0 1 1-.938 0v-4.695h-4.695a.47.47 0 1 1 0-.938h4.695z" fill="#666"/><text font-family="YandexSansText-Regular, Yandex Sans Text" font-size="16" fill="#000" transform="translate(37 103)"><tspan x="29" y="15">js</tspan></text><g><path fill="#FC0" d="M10 10h20v12H10z"/><path d="M10 8h19.008c.537 0 .992.448.992 1v1H10V8zm.997-2h6.006c.544 0 .997.448.997 1v1h-8V7c0-.556.446-1 .997-1z" fill="#E4A800"/></g><text font-family="YandexSansText-Regular, Yandex Sans Text" font-size="16" fill="#000" transform="translate(10 6)"><tspan x="56" y="140">index.min.css</tspan></text><text font-family="YandexSansText-Regular, Yandex Sans Text" font-size="16" fill="#000" transform="translate(10 6)"><tspan x="56" y="168">index.min.js</tspan></text><text font-family="YandexSansText-Regular, Yandex Sans Text" font-size="16" fill="#000" transform="translate(10 6)"><tspan x="26.864" y="15">static</tspan></text><text font-family="YandexSansText-Regular, Yandex Sans Text" font-size="16" fill="#000" transform="translate(10 6)"><tspan x="56" y="39">css</tspan></text><text font-family="YandexSansText-Regular, Yandex Sans Text" font-size="16" fill="#000" transform="translate(10 6)"><tspan x="56" y="60">images</tspan></text><text font-family="YandexSansText-Regular, Yandex Sans Text" font-size="16" fill="#000" transform="translate(10 6)"><tspan x="81.5" y="90">favicon.ico</tspan></text><g><g opacity=".598"><path fill="#FC0" d="M46.5 158h-10v20h16v-14z"/><path fill="#E4A800" d="M46.5 158v6h6z"/></g><g transform="translate(46.5 165)" fill="#666"><path d="M1.733 4.333l.65 7.584h4.984l.65-7.584H1.733zM.811 3.25h8.128c.147 0 .26.121.247.27l-.77 9.21a.3.3 0 0 1-.29.27H1.624a.3.3 0 0 1-.29-.27l-.77-9.21a.246.246 0 0 1 .247-.27zM.538 1.083h8.674a.54.54 0 0 1 .538.542c0 .301-.24.542-.538.542H.538A.54.54 0 0 1 0 1.625c0-.301.24-.542.538-.542zM4.338 0h1.074c.306 0 .546.243.546.542v.541H3.792V.542c0-.302.244-.542.546-.542z"/><rect x="5.417" y="5.417" width="1.083" height="5.417" rx=".542"/><rect x="3.25" y="5.417" width="1.083" height="5.417" rx=".542"/></g></g><g><g opacity=".598"><path fill="#FC0" d="M46.5 130h-10v20h16v-14z"/><path fill="#E4A800" d="M46.5 130v6h6z"/></g><g transform="translate(46.5 137)" fill="#666"><path d="M1.733 4.333l.65 7.584h4.984l.65-7.584H1.733zM.811 3.25h8.128c.147 0 .26.121.247.27l-.77 9.21a.3.3 0 0 1-.29.27H1.624a.3.3 0 0 1-.29-.27l-.77-9.21a.246.246 0 0 1 .247-.27zM.538 1.083h8.674a.54.54 0 0 1 .538.542c0 .301-.24.542-.538.542H.538A.54.54 0 0 1 0 1.625c0-.301.24-.542.538-.542zM4.338 0h1.074c.306 0 .546.243.546.542v.541H3.792V.542c0-.302.244-.542.546-.542z"/><rect x="5.417" y="5.417" width="1.083" height="5.417" rx=".542"/><rect x="3.25" y="5.417" width="1.083" height="5.417" rx=".542"/></g></g><g><path fill="#FC0" opacity=".602" d="M76 78H66v20h16V84z"/><path fill="#E4A800" opacity=".597" d="M76 78v6h6z"/><g><path d="M78.5 98a6.5 6.5 0 1 1 0-13 6.5 6.5 0 0 1 0 13z" fill-opacity=".5" fill="#66AB3C"/><path d="M78.5 97.768a6.268 6.268 0 1 0 0-12.536 6.268 6.268 0 0 0 0 12.536zm0 .232a6.5 6.5 0 1 1 0-13 6.5 6.5 0 0 1 0 13z" fill="#66AB3C"/><path d="M78.03 91.03v-4.694a.47.47 0 1 1 .94 0v4.695h4.694a.47.47 0 1 1 0 .938h-4.695v4.695a.47.47 0 1 1-.938 0v-4.695h-4.695a.47.47 0 1 1 0-.938h4.695z" fill="#666"/></g></g></g><g><path fill="#FC0" d="M10 190h20v12H10z"/><path d="M10 188h19.008c.537 0 .992.448.992 1v1H10v-2zm.997-2h6.006c.544 0 .997.448.997 1v1h-8v-1c0-.556.446-1 .997-1z" fill="#E4A800"/><text font-family="YandexSansText-Regular, Yandex Sans Text" font-size="16" fill="#000" transform="translate(10 186)"><tspan x="26.5" y="15">.enb</tspan></text><text font-family="YandexSansText-Regular, Yandex Sans Text" font-size="16" fill="#000" transform="translate(10 186)"><tspan x="56" y="39">make.js</tspan></text><g><g opacity=".6"><path fill="#FC0" d="M46.5 210h-10v20h16v-14z"/><path fill="#E4A800" d="M46.5 210v6h6z"/></g><path d="M52.43 221.965l-.96-.96-6.84 6.839v.96h.961l6.84-6.839zm-6.175 7.773a.77.77 0 0 1-.48.197h-1.991a.281.281 0 0 1-.284-.284v-1.99c0-.158.09-.374.197-.481l7.565-7.566a.282.282 0 0 1 .398.004l2.157 2.157c.11.11.11.29.004.398l-7.566 7.565zm9.468-9.468l-.655.655a.284.284 0 0 1-.399-.003l-2.157-2.156a.283.283 0 0 1-.002-.399l.654-.655c.296-.278.58-.284.853 0l1.706 1.706c.287.284.278.578 0 .852z" fill="#666"/></g></g></g></svg>