<?xml version="1.0" encoding="UTF-8"?>
<svg width="940px" height="490px" viewBox="0 0 940 490" version="1.1" xmlns="http://www.w3.org/2000/svg" xmlns:xlink="http://www.w3.org/1999/xlink">
    <!-- Generator: Sketch 43.2 (39069) - http://www.bohemiancoding.com/sketch -->
    <title>bemtree</title>
    <desc>Created with Sketch.</desc>
    <defs></defs>
    <g id="Page-1" stroke="none" stroke-width="1" fill="none" fill-rule="evenodd">
        <g id="Desktop-Copy" transform="translate(-42.000000, -266.000000)">
            <g id="bemtree" transform="translate(42.000000, 266.000000)">
                <rect id="Rectangle-231" fill="#FFFFFF" opacity="0.4" x="0" y="0" width="940" height="490"></rect>
                <g id="server" transform="translate(10.000000, 222.000000)">
                    <g id="folder-copy">
                        <rect id="Rectangle-165" fill="#FFCC00" x="0" y="4" width="20" height="12"></rect>
                        <path d="M0,2 L19.0081969,2 C19.5446944,2 20,2.44771525 20,3 L20,4 L0,4 L0,2 Z M0.997030139,0 L7.00296986,0 C7.54696369,0 8,0.44771525 8,1 L8,2 L0,2 L0,1 C0,0.443864822 0.446385598,0 0.997030139,0 Z" id="Rectangle-166" fill="#E4A800"></path>
                    </g>
                    <text font-family="YandexSansText-Regular, Yandex Sans Text" font-size="16" font-weight="normal" fill="#000000">
                        <tspan x="26.5" y="15">server</tspan>
                    </text>
                    <text id="index.js" font-family="YandexSansText-Regular, Yandex Sans Text" font-size="16" font-weight="normal" fill="#000000">
                        <tspan x="56" y="39">index.js</tspan>
                    </text>
                    <g id="edit-file" transform="translate(26.500000, 20.000000)">
                        <g id="setings_cashe_file_icon" opacity="0.6">
                            <polygon id="Rectangle-231" fill="#FFCC00" points="10 0 0 0 0 20 16 20 16 6"></polygon>
                            <polygon id="Rectangle-232" fill="#E4A800" points="10 0 10 6 16 6"></polygon>
                        </g>
                        <g id="common_navbar_edit" transform="translate(7.000000, 7.500000)" fill="#666666">
                            <path d="M8.93043651,4.46516219 L7.96956435,3.50432023 L1.13043478,10.3435059 L1.13043478,11.3043478 L2.09130262,11.3043478 L8.93043651,4.46516219 Z M2.75498913,12.2380423 C2.64633245,12.346699 2.43485915,12.4347826 2.27469687,12.4347826 L0.283551933,12.4347826 C0.126950525,12.4347826 0,12.311393 0,12.1512307 L0,10.1600857 C0,10.0034843 0.0893832591,9.78715054 0.196740326,9.67979348 L7.76225596,2.11427784 C7.87091264,2.00562116 8.05004572,2.00858695 8.15973778,2.11827901 L10.3165036,4.27504483 C10.4273701,4.38591129 10.4278618,4.56516958 10.3205048,4.67252665 L2.75498913,12.2380423 L2.75498913,12.2380423 Z M12.2227443,2.77028712 L12.2227443,2.77028712 L11.567776,3.42525544 C11.4612538,3.53177758 11.2801197,3.53316169 11.1692532,3.42229523 L9.01248738,1.26552941 C8.90279532,1.15583734 8.90029558,0.976238219 9.00952717,0.867006635 L9.66449549,0.212038312 C9.96016115,-0.0659311305 10.2439946,-0.0721074586 10.5172451,0.212038312 L12.2227443,1.91753752 C12.5102732,2.20199554 12.5006096,2.49613451 12.2227443,2.77028712 L12.2227443,2.77028712 Z" id="Shape"></path>
                        </g>
                    </g>
                </g>
                <g id="common.blocks" transform="translate(10.000000, 270.000000)">
                    <g id="folder-copy">
                        <rect id="Rectangle-165" fill="#FFCC00" x="0" y="4" width="20" height="12"></rect>
                        <path d="M0,2 L19.0081969,2 C19.5446944,2 20,2.44771525 20,3 L20,4 L0,4 L0,2 Z M0.997030139,0 L7.00296986,0 C7.54696369,0 8,0.44771525 8,1 L8,2 L0,2 L0,1 C0,0.443864822 0.446385598,0 0.997030139,0 Z" id="Rectangle-166" fill="#E4A800"></path>
                    </g>
                    <text font-family="YandexSansText-Regular, Yandex Sans Text" font-size="16" font-weight="normal" fill="#000000">
                        <tspan x="26.5" y="15">common.blocks</tspan>
                    </text>
                    <g id="folder-copy" transform="translate(26.500000, 24.000000)">
                        <rect id="Rectangle-165" fill="#FFCC00" x="0" y="4" width="20" height="12"></rect>
                        <path d="M0,2 L19.0081969,2 C19.5446944,2 20,2.44771525 20,3 L20,4 L0,4 L0,2 Z M0.997030139,0 L7.00296986,0 C7.54696369,0 8,0.44771525 8,1 L8,2 L0,2 L0,1 C0,0.443864822 0.446385598,0 0.997030139,0 Z" id="Rectangle-166" fill="#E4A800"></path>
                    </g>
                    <text id="root" font-family="YandexSansText-Regular, Yandex Sans Text" font-size="16" font-weight="normal" fill="#000000">
                        <tspan x="56" y="39">root</tspan>
                    </text>
                    <text id="root.bemtree.js" font-family="YandexSansText-Regular, Yandex Sans Text" font-size="16" font-weight="normal" fill="#000000">
                        <tspan x="81.5" y="63">root.bemtree.js</tspan>
                    </text>
                    <g id="edit-file" transform="translate(56.000000, 44.000000)">
                        <g id="setings_cashe_file_icon" opacity="0.6">
                            <polygon id="Rectangle-231" fill="#FFCC00" points="10 0 0 0 0 20 16 20 16 6"></polygon>
                            <polygon id="Rectangle-232" fill="#E4A800" points="10 0 10 6 16 6"></polygon>
                        </g>
                        <g id="common_navbar_edit" transform="translate(7.000000, 7.500000)" fill="#666666">
                            <path d="M8.93043651,4.46516219 L7.96956435,3.50432023 L1.13043478,10.3435059 L1.13043478,11.3043478 L2.09130262,11.3043478 L8.93043651,4.46516219 Z M2.75498913,12.2380423 C2.64633245,12.346699 2.43485915,12.4347826 2.27469687,12.4347826 L0.283551933,12.4347826 C0.126950525,12.4347826 0,12.311393 0,12.1512307 L0,10.1600857 C0,10.0034843 0.0893832591,9.78715054 0.196740326,9.67979348 L7.76225596,2.11427784 C7.87091264,2.00562116 8.05004572,2.00858695 8.15973778,2.11827901 L10.3165036,4.27504483 C10.4273701,4.38591129 10.4278618,4.56516958 10.3205048,4.67252665 L2.75498913,12.2380423 L2.75498913,12.2380423 Z M12.2227443,2.77028712 L12.2227443,2.77028712 L11.567776,3.42525544 C11.4612538,3.53177758 11.2801197,3.53316169 11.1692532,3.42229523 L9.01248738,1.26552941 C8.90279532,1.15583734 8.90029558,0.976238219 9.00952717,0.867006635 L9.66449549,0.212038312 C9.96016115,-0.0659311305 10.2439946,-0.0721074586 10.5172451,0.212038312 L12.2227443,1.91753752 C12.5102732,2.20199554 12.5006096,2.49613451 12.2227443,2.77028712 L12.2227443,2.77028712 Z" id="Shape"></path>
                        </g>
                    </g>
                </g>
                <g id="static" transform="translate(10.000000, 54.000000)">
                    <g id="add-folder-copy" transform="translate(26.500000, 24.000000)">
                        <rect id="Rectangle-165" fill="#FFCC00" x="0" y="4" width="20" height="12"></rect>
                        <path d="M0,2 L19.0081969,2 C19.5446944,2 20,2.44771525 20,3 L20,4 L0,4 L0,2 Z M0.997030139,0 L7.00296986,0 C7.54696369,0 8,0.44771525 8,1 L8,2 L0,2 L0,1 C0,0.443864822 0.446385598,0 0.997030139,0 Z" id="Rectangle-166" fill="#E4A800"></path>
                        <g id="map_marker_route_maneuver_area" transform="translate(10.000000, 3.000000)">
                            <path d="M6.5,13 L6.5,13 C2.91014913,13 0,10.0898509 0,6.5 C0,2.91014913 2.91014913,0 6.5,0 C10.0898509,0 13,2.91014913 13,6.5 C13,10.0898509 10.0898509,13 6.5,13 L6.5,13 Z" id="Path" fill-opacity="0.5" fill="#66AB3C"></path>
                            <path d="M6.5,12.7678571 L6.5,12.7678571 C9.96164191,12.7678571 12.7678571,9.96164191 12.7678571,6.5 C12.7678571,3.03835809 9.96164191,0.232142857 6.5,0.232142857 C3.03835809,0.232142857 0.232142857,3.03835809 0.232142857,6.5 C0.232142857,9.96164191 3.03835809,12.7678571 6.5,12.7678571 L6.5,12.7678571 Z M6.5,13 L6.5,13 C2.91014913,13 0,10.0898509 0,6.5 C0,2.91014913 2.91014913,0 6.5,0 C10.0898509,0 13,2.91014913 13,6.5 C13,10.0898509 10.0898509,13 6.5,13 L6.5,13 Z" id="Shape" fill="#66AB3C"></path>
                            <g id="common_navbar_add" transform="translate(0.866667, 0.866667)" fill="#666666">
                                <path d="M5.16388889,5.16388889 L5.16388889,0.469770536 C5.16388889,0.210061939 5.37406633,0 5.63333333,0 C5.8944079,0 6.10277778,0.210323433 6.10277778,0.469770536 L6.10277778,5.16388889 L10.7968961,5.16388889 C11.0566047,5.16388889 11.2666667,5.37406633 11.2666667,5.63333333 C11.2666667,5.8944079 11.0563432,6.10277778 10.7968961,6.10277778 L6.10277778,6.10277778 L6.10277778,10.7968961 C6.10277778,11.0566047 5.89260034,11.2666667 5.63333333,11.2666667 C5.37225876,11.2666667 5.16388889,11.0563432 5.16388889,10.7968961 L5.16388889,6.10277778 L0.469770536,6.10277778 C0.210061939,6.10277778 0,5.89260034 0,5.63333333 C0,5.37225876 0.210323433,5.16388889 0.469770536,5.16388889 L5.16388889,5.16388889 L5.16388889,5.16388889 Z" id="Rectangle-170"></path>
                            </g>
                        </g>
                    </g>
                    <g id="add-folder-copy-2" transform="translate(26.500000, 48.000000)">
                        <rect id="Rectangle-165" fill="#FFCC00" x="0" y="4" width="20" height="12"></rect>
                        <path d="M0,2 L19.0081969,2 C19.5446944,2 20,2.44771525 20,3 L20,4 L0,4 L0,2 Z M0.997030139,0 L7.00296986,0 C7.54696369,0 8,0.44771525 8,1 L8,2 L0,2 L0,1 C0,0.443864822 0.446385598,0 0.997030139,0 Z" id="Rectangle-166" fill="#E4A800"></path>
                        <g id="map_marker_route_maneuver_area" transform="translate(10.000000, 3.000000)">
                            <path d="M6.5,13 L6.5,13 C2.91014913,13 0,10.0898509 0,6.5 C0,2.91014913 2.91014913,0 6.5,0 C10.0898509,0 13,2.91014913 13,6.5 C13,10.0898509 10.0898509,13 6.5,13 L6.5,13 Z" id="Path" fill-opacity="0.5" fill="#66AB3C"></path>
                            <path d="M6.5,12.7678571 L6.5,12.7678571 C9.96164191,12.7678571 12.7678571,9.96164191 12.7678571,6.5 C12.7678571,3.03835809 9.96164191,0.232142857 6.5,0.232142857 C3.03835809,0.232142857 0.232142857,3.03835809 0.232142857,6.5 C0.232142857,9.96164191 3.03835809,12.7678571 6.5,12.7678571 L6.5,12.7678571 Z M6.5,13 L6.5,13 C2.91014913,13 0,10.0898509 0,6.5 C0,2.91014913 2.91014913,0 6.5,0 C10.0898509,0 13,2.91014913 13,6.5 C13,10.0898509 10.0898509,13 6.5,13 L6.5,13 Z" id="Shape" fill="#66AB3C"></path>
                            <g id="common_navbar_add" transform="translate(0.866667, 0.866667)" fill="#666666">
                                <path d="M5.16388889,5.16388889 L5.16388889,0.469770536 C5.16388889,0.210061939 5.37406633,0 5.63333333,0 C5.8944079,0 6.10277778,0.210323433 6.10277778,0.469770536 L6.10277778,5.16388889 L10.7968961,5.16388889 C11.0566047,5.16388889 11.2666667,5.37406633 11.2666667,5.63333333 C11.2666667,5.8944079 11.0563432,6.10277778 10.7968961,6.10277778 L6.10277778,6.10277778 L6.10277778,10.7968961 C6.10277778,11.0566047 5.89260034,11.2666667 5.63333333,11.2666667 C5.37225876,11.2666667 5.16388889,11.0563432 5.16388889,10.7968961 L5.16388889,6.10277778 L0.469770536,6.10277778 C0.210061939,6.10277778 0,5.89260034 0,5.63333333 C0,5.37225876 0.210323433,5.16388889 0.469770536,5.16388889 L5.16388889,5.16388889 L5.16388889,5.16388889 Z" id="Rectangle-170"></path>
                            </g>
                        </g>
                    </g>
                    <g id="js-copy" transform="translate(27.000000, 93.000000)">
                        <rect id="Rectangle-165" fill="#FFCC00" x="0" y="7" width="20" height="12"></rect>
                        <path d="M0,5 L19.0081969,5 C19.5446944,5 20,5.44771525 20,6 L20,7 L0,7 L0,5 Z M0.997030139,3 L7.00296986,3 C7.54696369,3 8,3.44771525 8,4 L8,5 L0,5 L0,4 C0,3.44386482 0.446385598,3 0.997030139,3 Z" id="Rectangle-166" fill="#E4A800"></path>
                        <g id="map_marker_route_maneuver_area" transform="translate(10.000000, 6.000000)">
                            <path d="M6.5,13 L6.5,13 C2.91014913,13 0,10.0898509 0,6.5 C0,2.91014913 2.91014913,0 6.5,0 C10.0898509,0 13,2.91014913 13,6.5 C13,10.0898509 10.0898509,13 6.5,13 L6.5,13 Z" id="Path" fill-opacity="0.5" fill="#66AB3C"></path>
                            <path d="M6.5,12.7678571 L6.5,12.7678571 C9.96164191,12.7678571 12.7678571,9.96164191 12.7678571,6.5 C12.7678571,3.03835809 9.96164191,0.232142857 6.5,0.232142857 C3.03835809,0.232142857 0.232142857,3.03835809 0.232142857,6.5 C0.232142857,9.96164191 3.03835809,12.7678571 6.5,12.7678571 L6.5,12.7678571 Z M6.5,13 L6.5,13 C2.91014913,13 0,10.0898509 0,6.5 C0,2.91014913 2.91014913,0 6.5,0 C10.0898509,0 13,2.91014913 13,6.5 C13,10.0898509 10.0898509,13 6.5,13 L6.5,13 Z" id="Shape" fill="#66AB3C"></path>
                            <g id="common_navbar_add" transform="translate(0.866667, 0.866667)" fill="#666666">
                                <path d="M5.16388889,5.16388889 L5.16388889,0.469770536 C5.16388889,0.210061939 5.37406633,0 5.63333333,0 C5.8944079,0 6.10277778,0.210323433 6.10277778,0.469770536 L6.10277778,5.16388889 L10.7968961,5.16388889 C11.0566047,5.16388889 11.2666667,5.37406633 11.2666667,5.63333333 C11.2666667,5.8944079 11.0563432,6.10277778 10.7968961,6.10277778 L6.10277778,6.10277778 L6.10277778,10.7968961 C6.10277778,11.0566047 5.89260034,11.2666667 5.63333333,11.2666667 C5.37225876,11.2666667 5.16388889,11.0563432 5.16388889,10.7968961 L5.16388889,6.10277778 L0.469770536,6.10277778 C0.210061939,6.10277778 0,5.89260034 0,5.63333333 C0,5.37225876 0.210323433,5.16388889 0.469770536,5.16388889 L5.16388889,5.16388889 L5.16388889,5.16388889 Z" id="Rectangle-170"></path>
                            </g>
                        </g>
                        <text id="js" font-family="YandexSansText-Regular, Yandex Sans Text" font-size="16" font-weight="normal" fill="#000000">
                            <tspan x="29" y="15">js</tspan>
                        </text>
                    </g>
                    <g id="folder-copy">
                        <rect id="Rectangle-165" fill="#FFCC00" x="0" y="4" width="20" height="12"></rect>
                        <path d="M0,2 L19.0081969,2 C19.5446944,2 20,2.44771525 20,3 L20,4 L0,4 L0,2 Z M0.997030139,0 L7.00296986,0 C7.54696369,0 8,0.44771525 8,1 L8,2 L0,2 L0,1 C0,0.443864822 0.446385598,0 0.997030139,0 Z" id="Rectangle-166" fill="#E4A800"></path>
                    </g>
                    <text id="index.min.css" font-family="YandexSansText-Regular, Yandex Sans Text" font-size="16" font-weight="normal" fill="#000000">
                        <tspan x="56" y="132">index.min.css</tspan>
                    </text>
                    <text id="index.min.js" font-family="YandexSansText-Regular, Yandex Sans Text" font-size="16" font-weight="normal" fill="#000000">
                        <tspan x="56" y="156">index.min.js</tspan>
                    </text>
                    <text font-family="YandexSansText-Regular, Yandex Sans Text" font-size="16" font-weight="normal" fill="#000000">
                        <tspan x="26.864" y="15">static</tspan>
                    </text>
                    <text id="css" font-family="YandexSansText-Regular, Yandex Sans Text" font-size="16" font-weight="normal" fill="#000000">
                        <tspan x="56" y="39">css</tspan>
                    </text>
                    <text id="images" font-family="YandexSansText-Regular, Yandex Sans Text" font-size="16" font-weight="normal" fill="#000000">
                        <tspan x="56" y="60">images</tspan>
                    </text>
                    <text id="favicon.ico" font-family="YandexSansText-Regular, Yandex Sans Text" font-size="16" font-weight="normal" fill="#000000">
                        <tspan x="81.5" y="86">favicon.ico</tspan>
                    </text>
                    <g id="trash-file-copy" transform="translate(26.500000, 140.000000)">
                        <g id="setings_cashe_file_icon" opacity="0.59774683">
                            <polygon id="Rectangle-231" fill="#FFCC00" points="10 0 0 0 0 20 16 20 16 6"></polygon>
                            <polygon id="Rectangle-232" fill="#E4A800" points="10 0 10 6 16 6"></polygon>
                        </g>
                        <g id="common_navbar_trashcan" transform="translate(10.000000, 7.000000)" fill="#666666">
                            <path d="M1.73333168,4.33333333 L2.38333416,11.9166667 L7.36666584,11.9166667 L8.01666832,4.33333333 L1.73333168,4.33333333 L1.73333168,4.33333333 Z M0.810546319,3.25 L0.810546319,3.25 L8.93945368,3.25 C9.08581861,3.25 9.1981918,3.37130707 9.18568159,3.52094693 L8.41586411,12.7290531 C8.40351851,12.876724 8.27356316,13 8.12596839,13 L1.62403161,13 C1.47891796,13 1.3466461,12.8786929 1.33413589,12.7290531 L0.564318413,3.52094693 C0.551972807,3.37327603 0.662048187,3.25 0.810546319,3.25 L0.810546319,3.25 L0.810546319,3.25 Z M0.538090412,1.08333333 L0.538090412,1.08333333 L9.21190959,1.08333333 C9.50898743,1.08333333 9.75,1.32584576 9.75,1.625 C9.75,1.92623989 9.50908872,2.16666667 9.21190959,2.16666667 L0.538090412,2.16666667 C0.241012573,2.16666667 0,1.92415424 0,1.625 C0,1.32376011 0.240911283,1.08333333 0.538090412,1.08333333 L0.538090412,1.08333333 L0.538090412,1.08333333 Z M4.33840815,0 L4.33840815,0 L5.41159185,0 C5.7181837,0 5.95833333,0.242512427 5.95833333,0.541666667 L5.95833333,1.08333333 L3.79166667,1.08333333 L3.79166667,0.541666667 C3.79166667,0.240426779 4.03645117,0 4.33840815,0 L4.33840815,0 L4.33840815,0 Z" id="Shape"></path>
                            <rect id="Rectangle-443" x="5.41666667" y="5.41666667" width="1.08333333" height="5.41666667" rx="0.541666667"></rect>
                            <rect id="Rectangle-443" x="3.25" y="5.41666667" width="1.08333333" height="5.41666667" rx="0.541666667"></rect>
                        </g>
                    </g>
                    <g id="trash-file-copy-2" transform="translate(26.500000, 116.000000)">
                        <g id="setings_cashe_file_icon" opacity="0.59774683">
                            <polygon id="Rectangle-231" fill="#FFCC00" points="10 0 0 0 0 20 16 20 16 6"></polygon>
                            <polygon id="Rectangle-232" fill="#E4A800" points="10 0 10 6 16 6"></polygon>
                        </g>
                        <g id="common_navbar_trashcan" transform="translate(10.000000, 7.000000)" fill="#666666">
                            <path d="M1.73333168,4.33333333 L2.38333416,11.9166667 L7.36666584,11.9166667 L8.01666832,4.33333333 L1.73333168,4.33333333 L1.73333168,4.33333333 Z M0.810546319,3.25 L0.810546319,3.25 L8.93945368,3.25 C9.08581861,3.25 9.1981918,3.37130707 9.18568159,3.52094693 L8.41586411,12.7290531 C8.40351851,12.876724 8.27356316,13 8.12596839,13 L1.62403161,13 C1.47891796,13 1.3466461,12.8786929 1.33413589,12.7290531 L0.564318413,3.52094693 C0.551972807,3.37327603 0.662048187,3.25 0.810546319,3.25 L0.810546319,3.25 L0.810546319,3.25 Z M0.538090412,1.08333333 L0.538090412,1.08333333 L9.21190959,1.08333333 C9.50898743,1.08333333 9.75,1.32584576 9.75,1.625 C9.75,1.92623989 9.50908872,2.16666667 9.21190959,2.16666667 L0.538090412,2.16666667 C0.241012573,2.16666667 0,1.92415424 0,1.625 C0,1.32376011 0.240911283,1.08333333 0.538090412,1.08333333 L0.538090412,1.08333333 L0.538090412,1.08333333 Z M4.33840815,0 L4.33840815,0 L5.41159185,0 C5.7181837,0 5.95833333,0.242512427 5.95833333,0.541666667 L5.95833333,1.08333333 L3.79166667,1.08333333 L3.79166667,0.541666667 C3.79166667,0.240426779 4.03645117,0 4.33840815,0 L4.33840815,0 L4.33840815,0 Z" id="Shape"></path>
                            <rect id="Rectangle-443" x="5.41666667" y="5.41666667" width="1.08333333" height="5.41666667" rx="0.541666667"></rect>
                            <rect id="Rectangle-443" x="3.25" y="5.41666667" width="1.08333333" height="5.41666667" rx="0.541666667"></rect>
                        </g>
                    </g>
                    <g id="add-file-copy" transform="translate(56.000000, 68.000000)">
                        <g id="setings_cashe_file_icon">
                            <polygon id="Rectangle-231" fill="#FFCC00" opacity="0.601573822" points="10 0 0 0 0 20 16 20 16 6"></polygon>
                            <polygon id="Rectangle-232" fill="#E4A800" opacity="0.597463768" points="10 0 10 6 16 6"></polygon>
                        </g>
                        <g id="map_marker_route_maneuver_area" transform="translate(6.000000, 7.000000)">
                            <path d="M6.5,13 L6.5,13 C2.91014913,13 0,10.0898509 0,6.5 C0,2.91014913 2.91014913,0 6.5,0 C10.0898509,0 13,2.91014913 13,6.5 C13,10.0898509 10.0898509,13 6.5,13 L6.5,13 Z" id="Path" fill-opacity="0.5" fill="#66AB3C"></path>
                            <path d="M6.5,12.7678571 L6.5,12.7678571 C9.96164191,12.7678571 12.7678571,9.96164191 12.7678571,6.5 C12.7678571,3.03835809 9.96164191,0.232142857 6.5,0.232142857 C3.03835809,0.232142857 0.232142857,3.03835809 0.232142857,6.5 C0.232142857,9.96164191 3.03835809,12.7678571 6.5,12.7678571 L6.5,12.7678571 Z M6.5,13 L6.5,13 C2.91014913,13 0,10.0898509 0,6.5 C0,2.91014913 2.91014913,0 6.5,0 C10.0898509,0 13,2.91014913 13,6.5 C13,10.0898509 10.0898509,13 6.5,13 L6.5,13 Z" id="Shape" fill="#66AB3C"></path>
                            <g id="common_navbar_add" transform="translate(0.866667, 0.866667)" fill="#666666">
                                <path d="M5.16388889,5.16388889 L5.16388889,0.469770536 C5.16388889,0.210061939 5.37406633,0 5.63333333,0 C5.8944079,0 6.10277778,0.210323433 6.10277778,0.469770536 L6.10277778,5.16388889 L10.7968961,5.16388889 C11.0566047,5.16388889 11.2666667,5.37406633 11.2666667,5.63333333 C11.2666667,5.8944079 11.0563432,6.10277778 10.7968961,6.10277778 L6.10277778,6.10277778 L6.10277778,10.7968961 C6.10277778,11.0566047 5.89260034,11.2666667 5.63333333,11.2666667 C5.37225876,11.2666667 5.16388889,11.0563432 5.16388889,10.7968961 L5.16388889,6.10277778 L0.469770536,6.10277778 C0.210061939,6.10277778 0,5.89260034 0,5.63333333 C0,5.37225876 0.210323433,5.16388889 0.469770536,5.16388889 L5.16388889,5.16388889 L5.16388889,5.16388889 Z" id="Rectangle-170"></path>
                            </g>
                        </g>
                    </g>
                </g>
                <g id=".enb" transform="translate(10.000000, 6.000000)">
                    <g id="folder">
                        <rect id="Rectangle-165" fill="#FFCC00" x="0" y="4" width="20" height="12"></rect>
                        <path d="M0,2 L19.0081969,2 C19.5446944,2 20,2.44771525 20,3 L20,4 L0,4 L0,2 Z M0.997030139,0 L7.00296986,0 C7.54696369,0 8,0.44771525 8,1 L8,2 L0,2 L0,1 C0,0.443864822 0.446385598,0 0.997030139,0 Z" id="Rectangle-166" fill="#E4A800"></path>
                    </g>
                    <text font-family="YandexSansText-Regular, Yandex Sans Text" font-size="16" font-weight="normal" fill="#000000">
                        <tspan x="26.5" y="15">.enb</tspan>
                    </text>
                    <text id="make.js" font-family="YandexSansText-Regular, Yandex Sans Text" font-size="16" font-weight="normal" fill="#000000">
                        <tspan x="56" y="35">make.js</tspan>
                    </text>
                    <g id="edit-file" transform="translate(26.500000, 20.000000)">
                        <g id="setings_cashe_file_icon" opacity="0.6">
                            <polygon id="Rectangle-231" fill="#FFCC00" points="10 0 0 0 0 20 16 20 16 6"></polygon>
                            <polygon id="Rectangle-232" fill="#E4A800" points="10 0 10 6 16 6"></polygon>
                        </g>
                        <g id="common_navbar_edit" transform="translate(7.000000, 7.500000)" fill="#666666">
                            <path d="M8.93043651,4.46516219 L7.96956435,3.50432023 L1.13043478,10.3435059 L1.13043478,11.3043478 L2.09130262,11.3043478 L8.93043651,4.46516219 Z M2.75498913,12.2380423 C2.64633245,12.346699 2.43485915,12.4347826 2.27469687,12.4347826 L0.283551933,12.4347826 C0.126950525,12.4347826 0,12.311393 0,12.1512307 L0,10.1600857 C0,10.0034843 0.0893832591,9.78715054 0.196740326,9.67979348 L7.76225596,2.11427784 C7.87091264,2.00562116 8.05004572,2.00858695 8.15973778,2.11827901 L10.3165036,4.27504483 C10.4273701,4.38591129 10.4278618,4.56516958 10.3205048,4.67252665 L2.75498913,12.2380423 L2.75498913,12.2380423 Z M12.2227443,2.77028712 L12.2227443,2.77028712 L11.567776,3.42525544 C11.4612538,3.53177758 11.2801197,3.53316169 11.1692532,3.42229523 L9.01248738,1.26552941 C8.90279532,1.15583734 8.90029558,0.976238219 9.00952717,0.867006635 L9.66449549,0.212038312 C9.96016115,-0.0659311305 10.2439946,-0.0721074586 10.5172451,0.212038312 L12.2227443,1.91753752 C12.5102732,2.20199554 12.5006096,2.49613451 12.2227443,2.77028712 L12.2227443,2.77028712 Z" id="Shape"></path>
                        </g>
                    </g>
                </g>
            </g>
        </g>
    </g>
</svg>