<svg width="940" height="360" viewBox="0 0 940 360" xmlns="http://www.w3.org/2000/svg"><title>static-changes</title><g fill="none" fill-rule="evenodd"><path fill="#FFF" opacity=".4" d="M0 0h940v350H0z"/><path fill="#FC0" d="M0 298h20v12H0z"/><path d="M0 296h19.008c.537 0 .992.448.992 1v1H0v-2zm.997-2h6.006c.544 0 .997.448.997 1v1H0v-1c0-.556.446-1 .997-1z" fill="#E4A800"/><text font-family="YandexSansText-Regular, Yandex Sans Text" font-size="16" fill="#000" transform="translate(0 294)"><tspan x="26.5" y="15">server</tspan></text><text font-family="YandexSansText-Regular, Yandex Sans Text" font-size="16" fill="#000" transform="translate(0 294)"><tspan x="56" y="39">index.js</tspan></text><g opacity=".6"><path fill="#FC0" d="M36.5 314h-10v20h16v-14z"/><path fill="#E4A800" d="M36.5 314v6h6z"/></g><path d="M42.43 325.965l-.96-.96-6.84 6.839v.96h.961l6.84-6.839zm-6.175 7.773a.77.77 0 0 1-.48.197h-1.991a.281.281 0 0 1-.284-.284v-1.99c0-.158.09-.374.197-.481l7.565-7.566a.282.282 0 0 1 .398.004l2.157 2.157c.11.11.11.29.004.398l-7.566 7.565zm9.468-9.468l-.655.655a.284.284 0 0 1-.399-.003l-2.157-2.156a.283.283 0 0 1-.002-.399l.654-.655c.296-.278.58-.284.853 0l1.706 1.706c.287.284.278.578 0 .852z" fill="#666"/><text font-family="YandexSansText-Regular, Yandex Sans Text" font-size="16" fill="#000" transform="translate(0 294)"><tspan x="56" y="63">rebuild.js</tspan></text><g><g opacity=".6"><path fill="#FC0" d="M36.5 338h-10v20h16v-14z"/><path fill="#E4A800" d="M36.5 338v6h6z"/></g><path d="M42.43 349.965l-.96-.96-6.84 6.839v.96h.961l6.84-6.839zm-6.175 7.773a.77.77 0 0 1-.48.197h-1.991a.281.281 0 0 1-.284-.284v-1.99c0-.158.09-.374.197-.481l7.565-7.566a.282.282 0 0 1 .398.004l2.157 2.157c.11.11.11.29.004.398l-7.566 7.565zm9.468-9.468l-.655.655a.284.284 0 0 1-.399-.003l-2.157-2.156a.283.283 0 0 1-.002-.399l.654-.655c.296-.278.58-.284.853 0l1.706 1.706c.287.284.278.578 0 .852z" fill="#666"/></g><g><path fill="#FC0" d="M0 226h20v12H0z"/><path d="M0 224h19.008c.537 0 .992.448.992 1v1H0v-2zm.997-2h6.006c.544 0 .997.448.997 1v1H0v-1c0-.556.446-1 .997-1z" fill="#E4A800"/><text font-family="YandexSansText-Regular, Yandex Sans Text" font-size="16" fill="#000" transform="translate(0 222)"><tspan x="26.5" y="15">common.blocks</tspan></text><path fill="#FC0" d="M26.5 250h20v12h-20z"/><path d="M26.5 248h19.008c.537 0 .992.448.992 1v1h-20v-2zm.997-2h6.006c.544 0 .997.448.997 1v1h-8v-1c0-.556.446-1 .997-1z" fill="#E4A800"/><text font-family="YandexSansText-Regular, Yandex Sans Text" font-size="16" fill="#000" transform="translate(0 222)"><tspan x="56" y="39">root</tspan></text><text font-family="YandexSansText-Regular, Yandex Sans Text" font-size="16" fill="#000" transform="translate(0 222)"><tspan x="81.5" y="63">root.bemtree.js</tspan></text><g><g opacity=".6"><path fill="#FC0" d="M66 266H56v20h16v-14z"/><path fill="#E4A800" d="M66 266v6h6z"/></g><path d="M71.93 277.965l-.96-.96-6.84 6.839v.96h.961l6.84-6.839zm-6.175 7.773a.77.77 0 0 1-.48.197h-1.991a.281.281 0 0 1-.284-.284v-1.99c0-.158.09-.374.197-.481l7.565-7.566a.282.282 0 0 1 .398.004l2.157 2.157c.11.11.11.29.004.398l-7.566 7.565zm9.468-9.468l-.655.655a.284.284 0 0 1-.399-.003l-2.157-2.156a.283.283 0 0 1-.002-.399l.654-.655c.296-.278.58-.284.853 0l1.706 1.706c.287.284.278.578 0 .852z" fill="#666"/></g></g><g><path fill="#FC0" d="M26.5 34h20v12h-20z"/><path d="M26.5 32h19.008c.537 0 .992.448.992 1v1h-20v-2zm.997-2h6.006c.544 0 .997.448.997 1v1h-8v-1c0-.556.446-1 .997-1z" fill="#E4A800"/><path d="M43 46a6.5 6.5 0 1 1 0-13 6.5 6.5 0 0 1 0 13z" fill-opacity=".5" fill="#66AB3C"/><path d="M43 45.768a6.268 6.268 0 1 0 0-12.536 6.268 6.268 0 0 0 0 12.536zM43 46a6.5 6.5 0 1 1 0-13 6.5 6.5 0 0 1 0 13z" fill="#66AB3C"/><path d="M42.53 39.03v-4.694a.47.47 0 1 1 .94 0v4.695h4.694a.47.47 0 1 1 0 .938h-4.695v4.695a.47.47 0 1 1-.938 0v-4.695h-4.695a.47.47 0 1 1 0-.938h4.695z" fill="#666"/><path fill="#FC0" d="M26.5 58h20v12h-20z"/><path d="M26.5 56h19.008c.537 0 .992.448.992 1v1h-20v-2zm.997-2h6.006c.544 0 .997.448.997 1v1h-8v-1c0-.556.446-1 .997-1z" fill="#E4A800"/><path d="M43 70a6.5 6.5 0 1 1 0-13 6.5 6.5 0 0 1 0 13z" fill-opacity=".5" fill="#66AB3C"/><path d="M43 69.768a6.268 6.268 0 1 0 0-12.536 6.268 6.268 0 0 0 0 12.536zM43 70a6.5 6.5 0 1 1 0-13 6.5 6.5 0 0 1 0 13z" fill="#66AB3C"/><path d="M42.53 63.03v-4.694a.47.47 0 1 1 .94 0v4.695h4.694a.47.47 0 1 1 0 .938h-4.695v4.695a.47.47 0 1 1-.938 0v-4.695h-4.695a.47.47 0 1 1 0-.938h4.695z" fill="#666"/><path fill="#FC0" d="M27 106h20v12H27z"/><path d="M27 104h19.008c.537 0 .992.448.992 1v1H27v-2zm.997-2h6.006c.544 0 .997.448.997 1v1h-8v-1c0-.556.446-1 .997-1z" fill="#E4A800"/><path d="M43.5 118a6.5 6.5 0 1 1 0-13 6.5 6.5 0 0 1 0 13z" fill-opacity=".5" fill="#66AB3C"/><path d="M43.5 117.768a6.268 6.268 0 1 0 0-12.536 6.268 6.268 0 0 0 0 12.536zm0 .232a6.5 6.5 0 1 1 0-13 6.5 6.5 0 0 1 0 13z" fill="#66AB3C"/><path d="M43.03 111.03v-4.694a.47.47 0 1 1 .94 0v4.695h4.694a.47.47 0 1 1 0 .938h-4.695v4.695a.47.47 0 1 1-.938 0v-4.695h-4.695a.47.47 0 1 1 0-.938h4.695z" fill="#666"/><text font-family="YandexSansText-Regular, Yandex Sans Text" font-size="16" fill="#000" transform="translate(27 99)"><tspan x="29" y="15">js</tspan></text><g><path fill="#FC0" d="M0 10h20v12H0z"/><path d="M0 8h19.008c.537 0 .992.448.992 1v1H0V8zm.997-2h6.006C7.547 6 8 6.448 8 7v1H0V7c0-.556.446-1 .997-1z" fill="#E4A800"/></g><text font-family="YandexSansText-Regular, Yandex Sans Text" font-size="16" fill="#000" transform="translate(0 6)"><tspan x="56" y="132">index.min.css</tspan></text><text font-family="YandexSansText-Regular, Yandex Sans Text" font-size="16" fill="#000" transform="translate(0 6)"><tspan x="56" y="156">index.min.js</tspan></text><text font-family="YandexSansText-Regular, Yandex Sans Text" font-size="16" fill="#000" transform="translate(0 6)"><tspan x="26.864" y="15">static</tspan></text><text font-family="YandexSansText-Regular, Yandex Sans Text" font-size="16" fill="#000" transform="translate(0 6)"><tspan x="56" y="39">css</tspan></text><text font-family="YandexSansText-Regular, Yandex Sans Text" font-size="16" fill="#000" transform="translate(0 6)"><tspan x="56" y="60">images</tspan></text><text font-family="YandexSansText-Regular, Yandex Sans Text" font-size="16" fill="#000" transform="translate(0 6)"><tspan x="81.5" y="86">favicon.ico</tspan></text><g><g opacity=".598"><path fill="#FC0" d="M36.5 146h-10v20h16v-14z"/><path fill="#E4A800" d="M36.5 146v6h6z"/></g><g transform="translate(36.5 153)" fill="#666"><path d="M1.733 4.333l.65 7.584h4.984l.65-7.584H1.733zM.811 3.25h8.128c.147 0 .26.121.247.27l-.77 9.21a.3.3 0 0 1-.29.27H1.624a.3.3 0 0 1-.29-.27l-.77-9.21a.246.246 0 0 1 .247-.27zM.538 1.083h8.674a.54.54 0 0 1 .538.542c0 .301-.24.542-.538.542H.538A.54.54 0 0 1 0 1.625c0-.301.24-.542.538-.542zM4.338 0h1.074c.306 0 .546.243.546.542v.541H3.792V.542c0-.302.244-.542.546-.542z"/><rect x="5.417" y="5.417" width="1.083" height="5.417" rx=".542"/><rect x="3.25" y="5.417" width="1.083" height="5.417" rx=".542"/></g></g><g><g opacity=".598"><path fill="#FC0" d="M36.5 122h-10v20h16v-14z"/><path fill="#E4A800" d="M36.5 122v6h6z"/></g><g transform="translate(36.5 129)" fill="#666"><path d="M1.733 4.333l.65 7.584h4.984l.65-7.584H1.733zM.811 3.25h8.128c.147 0 .26.121.247.27l-.77 9.21a.3.3 0 0 1-.29.27H1.624a.3.3 0 0 1-.29-.27l-.77-9.21a.246.246 0 0 1 .247-.27zM.538 1.083h8.674a.54.54 0 0 1 .538.542c0 .301-.24.542-.538.542H.538A.54.54 0 0 1 0 1.625c0-.301.24-.542.538-.542zM4.338 0h1.074c.306 0 .546.243.546.542v.541H3.792V.542c0-.302.244-.542.546-.542z"/><rect x="5.417" y="5.417" width="1.083" height="5.417" rx=".542"/><rect x="3.25" y="5.417" width="1.083" height="5.417" rx=".542"/></g></g><g><path fill="#FC0" opacity=".602" d="M66 74H56v20h16V80z"/><path fill="#E4A800" opacity=".597" d="M66 74v6h6z"/><g><path d="M68.5 94a6.5 6.5 0 1 1 0-13 6.5 6.5 0 0 1 0 13z" fill-opacity=".5" fill="#66AB3C"/><path d="M68.5 93.768a6.268 6.268 0 1 0 0-12.536 6.268 6.268 0 0 0 0 12.536zm0 .232a6.5 6.5 0 1 1 0-13 6.5 6.5 0 0 1 0 13z" fill="#66AB3C"/><path d="M68.03 87.03v-4.694a.47.47 0 1 1 .94 0v4.695h4.694a.47.47 0 1 1 0 .938h-4.695v4.695a.47.47 0 1 1-.938 0v-4.695h-4.695a.47.47 0 1 1 0-.938h4.695z" fill="#666"/></g></g></g><g><path fill="#FC0" d="M0 178h20v12H0z"/><path d="M0 176h19.008c.537 0 .992.448.992 1v1H0v-2zm.997-2h6.006c.544 0 .997.448.997 1v1H0v-1c0-.556.446-1 .997-1z" fill="#E4A800"/><text font-family="YandexSansText-Regular, Yandex Sans Text" font-size="16" fill="#000" transform="translate(0 174)"><tspan x="26.5" y="15">.enb</tspan></text><text font-family="YandexSansText-Regular, Yandex Sans Text" font-size="16" fill="#000" transform="translate(0 174)"><tspan x="56" y="35">make.js</tspan></text><g><g opacity=".6"><path fill="#FC0" d="M36.5 194h-10v20h16v-14z"/><path fill="#E4A800" d="M36.5 194v6h6z"/></g><path d="M42.43 205.965l-.96-.96-6.84 6.839v.96h.961l6.84-6.839zm-6.175 7.773a.77.77 0 0 1-.48.197h-1.991a.281.281 0 0 1-.284-.284v-1.99c0-.158.09-.374.197-.481l7.565-7.566a.282.282 0 0 1 .398.004l2.157 2.157c.11.11.11.29.004.398l-7.566 7.565zm9.468-9.468l-.655.655a.284.284 0 0 1-.399-.003l-2.157-2.156a.283.283 0 0 1-.002-.399l.654-.655c.296-.278.58-.284.853 0l1.706 1.706c.287.284.278.578 0 .852z" fill="#666"/></g></g></g></svg>